<svg width="156" height="25" viewBox="0 0 156 25" fill="none" xmlns="http://www.w3.org/2000/svg">
<path d="M1.66516 8.95643C0.882291 9.22738 0.467303 10.0817 0.738254 10.8645L5.15366 23.6221C5.42461 24.4049 6.2789 24.8199 7.06176 24.549C7.84462 24.278 8.25961 23.4237 7.98866 22.6409L4.06386 11.3008L15.4039 7.37603C16.1867 7.10508 16.6017 6.2508 16.3308 5.46793C16.0598 4.68507 15.2055 4.27008 14.4227 4.54103L1.66516 8.95643ZM154.282 0.684172C132.026 12.8007 103.634 19.5105 76.0085 20.8614C48.3681 22.213 21.6816 18.1914 2.81117 9.0247L1.50034 11.7232C20.9739 21.1828 48.2096 25.2243 76.1551 23.8578C104.115 22.4905 132.973 15.7009 155.717 3.31901L154.282 0.684172Z" fill="#370000"/>
</svg>
