<?xml version="1.0" encoding="utf-8"?>
<!-- Generator: Adobe Illustrator 27.0.0, SVG Export Plug-In . SVG Version: 6.00 Build 0)  -->
<svg version="1.1" xmlns="http://www.w3.org/2000/svg" xmlns:xlink="http://www.w3.org/1999/xlink" x="0px" y="0px"
	 viewBox="0 0 800 800" style="enable-background:new 0 0 800 800;" xml:space="preserve">
<style type="text/css">
	.st0{opacity:0.65;fill:#F7941D;}
	.st1{fill:#231F20;}
	.st2{opacity:0.33;fill:#6D6E71;stroke:#231F20;stroke-miterlimit:10;}
	.st3{opacity:0.47;fill:none;stroke:#F15A29;stroke-miterlimit:10;}
	.st4{display:none;}
	.st5{display:inline;}
	.st6{fill:none;stroke:#F15A29;stroke-width:3;stroke-miterlimit:10;}
	.st7{fill:none;stroke:#231F20;stroke-width:1.5;stroke-miterlimit:10;}
</style>
<g id="Layer_4">
	<polygon class="st0" points="218.4,512.6 343.2,363.6 378.3,349.5 456.3,340 531.4,351 715.1,415.9 720.3,512.6 	"/>
</g>
<g id="Layer_3">
	<g>
		<g>
			<path class="st1" d="M3.3,609.3c28.8,0.4,57.7,3.9,86.6,2.3c13.2-0.7,26.6-2.4,39.2-6.7c11.6-3.9,21.8-10,31.1-18
				c19.1-16.5,35-36.7,50.5-56.5c16-20.4,31.4-41.4,48.2-61.2c8.1-9.5,16.8-18.5,24.9-27.9c9.8-11.5,19.4-23.1,29.4-34.5
				c18.4-20.9,39.1-43.2,66.1-52.5c23.2-8,48.6-9.4,72.9-9.4c11.3,0,22.8,0.1,34,1.9c15.8,2.5,31.5,5.7,47,9.6
				c54.1,13.8,104.5,38.1,157,56.4c7.8,2.7,15.7,5.3,23.6,7.8c-1.2-1.6-2.4-3.2-3.7-4.8c4.1,63.1,6.8,126.2,8.2,189.4
				c0.1,3,2.3,4.7,5,5c24.4,3.1,49.1,4.5,73.7,4.2c6.4-0.1,6.4-10.1,0-10c-24.6,0.3-49.3-1.1-73.7-4.2c1.7,1.7,3.3,3.3,5,5
				c-1.4-63.2-4.1-126.3-8.2-189.4c-0.1-2.3-1.5-4.1-3.7-4.8c-28.9-9.1-57.1-20-85.3-31.2c-25-10-50.1-19.9-75.9-27.6
				c-14.1-4.2-28.4-7.8-42.9-10.8c-13.4-2.7-26.9-5.3-40.6-6.1c-24.6-1.4-49.4-0.3-73.7,4c-12.7,2.3-25,5.7-36.5,11.8
				c-12.5,6.6-23.6,15.8-33.7,25.6c-21.8,20.9-39.9,45.1-60,67.5c-7.9,8.8-15.9,17.4-23.3,26.6c-8.2,10.1-16.1,20.3-24,30.6
				c-16.3,21.1-32.4,42.5-50.6,62c-7.6,8.2-15.7,16.5-25.1,22.8c-10.7,7.2-23.1,11.1-35.7,13.3c-27.9,4.8-56.7,1.8-84.7,0.4
				c-7.1-0.3-14.2-0.6-21.3-0.7C-3.2,599.2-3.2,609.2,3.3,609.3L3.3,609.3z"/>
		</g>
	</g>
	<polygon class="st2" points="0,512.6 0,603.6 90.8,606.6 141.6,594.2 218.4,512.6 	"/>
	<polygon class="st2" points="800,512.6 720.3,512.6 723.3,605.3 774.9,609.6 800,609.6 	"/>
</g>
<g id="Layer_2">
</g>
<g id="Layer_7">
	<line class="st3" x1="90.7" y1="0.5" x2="90.7" y2="667.9"/>
	<line class="st3" x1="292.5" y1="0" x2="292.5" y2="667.4"/>
	<line class="st3" x1="539.3" y1="-1" x2="539.3" y2="666.4"/>
	<line class="st3" x1="721.4" y1="1.7" x2="721.4" y2="669.1"/>
</g>
<g id="Layer_1" class="st4">
	<g class="st5">
		<g>
			<path class="st1" d="M419.8,404.7c3.2,0,3.2-5,0-5C416.5,399.7,416.5,404.7,419.8,404.7L419.8,404.7z"/>
		</g>
	</g>
	
		<image style="display:inline;overflow:visible;opacity:0.54;" width="629" height="441" xlink:href="33D812D3.jpg"  transform="matrix(1.5131 0 0 1.6373 -29.8966 112.5862)">
	</image>
</g>
<g id="Layer_5">
	<g>
		<line class="st6" x1="38.7" y1="747.5" x2="58.7" y2="758.3"/>
		<line class="st6" x1="58.7" y1="758.3" x2="40.8" y2="768.2"/>
	</g>
	<g>
		<line class="st6" x1="752.9" y1="749.4" x2="772.9" y2="760.2"/>
		<line class="st6" x1="772.9" y1="760.2" x2="755" y2="770.1"/>
	</g>
	<g>
		<line class="st6" x1="403.2" y1="747.5" x2="423.2" y2="758.3"/>
		<line class="st6" x1="423.2" y1="758.3" x2="405.2" y2="768.2"/>
	</g>
</g>
<g id="Layer_8">
</g>
<g id="Layer_6">
	<path class="st7" d="M38,563.6c-1,13.3-2.1,26.7-3.1,40c-0.6-0.4-0.9-1.3-0.7-1.9"/>
	<g>
		<g>
			<path class="st1" d="M31.8,576.6c-0.4,0.4-0.7,0.8-1.2,1.2c-0.1,0.1-0.2,0.2-0.3,0.2c0.1-0.1,0.7-0.5,0.1-0.1
				c-0.3,0.2-0.5,0.3-0.8,0.5c-0.2,0.1-0.6,0.2-0.8,0.4c0,0,0.7-0.2,0.3-0.1c-0.1,0-0.2,0.1-0.4,0.1c-0.3,0.1-0.6,0.2-0.9,0.2
				c-0.1,0-0.3,0.1-0.4,0.1c-0.5,0.1,0,0,0.2,0c-0.5-0.1-1.1,0.1-1.7,0c-0.1,0-0.3-0.1-0.4,0c0.5-0.1,0.6,0.1,0.2,0
				c-0.3-0.1-0.6-0.1-0.9-0.2c-0.1,0-0.8-0.2-0.8-0.3c0,0,0.7,0.3,0.3,0.1c-0.1-0.1-0.2-0.1-0.3-0.2c-0.5-0.3-1-0.7-1.5-0.9
				c0.1,0,0.6,0.5,0.2,0.1c-0.1-0.1-0.2-0.2-0.3-0.3c-0.2-0.2-0.4-0.4-0.5-0.5c-0.1-0.1-0.2-0.2-0.3-0.3c-0.4-0.5,0.1,0.1,0.1,0.2
				c-0.1-0.2-0.4-0.5-0.5-0.7c0,0-0.4-0.8-0.4-0.8c0,0,0.2,0.7,0.1,0.2c0,0-0.2-0.4-0.1-0.4c0.1,0-0.1,0.9,0,0.8
				c0-0.2,0.2-0.4-0.1,0.1c-0.1,0.3-0.3,0.5-0.5,0.8c0.4-0.3-0.3,0.2-0.4,0.2c0,0,0.3-0.2,0.3-0.2c0.1-0.1-0.8,0.4-0.5,0.2
				c0.1,0,0.2,0,0.3-0.1c0,0-0.9,0-0.5,0.1c0.2,0,0.5,0,0.7,0c0.1,0,0.2,0,0.3,0c0.4,0-0.8-0.2-0.4,0c1.1,0.3,2.2,0.7,3.3,1.1
				c3.2,1.3,6.5,2.6,9.7,3.8c1.8,0.7,4.2-0.8,4.6-2.6c0.5-2.2-0.7-3.8-2.6-4.6c-3.5-1.4-7-2.8-10.5-4.2c-3-1.2-7.1-1.8-9.6,0.7
				c-3.3,3.4-1,8.3,1.8,11.2c2.5,2.5,5.9,4,9.5,4.1c4,0.1,8.1-1.7,10.6-4.8c1.3-1.5,1.6-3.9,0-5.3C35.7,575.3,33.1,575,31.8,576.6
				L31.8,576.6z"/>
		</g>
	</g>
	<g>
		<g>
			<path class="st1" d="M78.9,604.3c0.7-11.6,3.1-23,6.9-34.1c0.6-1.9-0.7-4.2-2.6-4.6c-2.1-0.5-3.9,0.6-4.6,2.6
				c-4,11.6-6.4,23.8-7.2,36.1c-0.1,2,1.8,3.8,3.8,3.8C77.2,608,78.7,606.4,78.9,604.3L78.9,604.3z"/>
		</g>
	</g>
	<g>
		<g>
			<path class="st1" d="M76,579.1c-0.2,0.1-0.5,0.1-0.7,0.1c0.3,0,0.7-0.1,1-0.1c-0.7,0.1-1.5,0.1-2.2,0c0.3,0,0.7,0.1,1,0.1
				c-0.8-0.1-1.5-0.3-2.3-0.6c0.3,0.1,0.6,0.3,0.9,0.4c-0.8-0.3-1.6-0.8-2.3-1.3c0.3,0.2,0.5,0.4,0.8,0.6c-0.7-0.5-1.3-1.1-1.8-1.8
				c0.2,0.3,0.4,0.5,0.6,0.8c-0.5-0.6-0.9-1.3-1.2-2c0.1,0.3,0.3,0.6,0.4,0.9c-0.3-0.6-0.4-1.3-0.5-2c0,0.3,0.1,0.7,0.1,1
				c0-0.1,0-0.3,0-0.4c-0.1-1-0.4-1.9-1.1-2.7c-0.7-0.7-1.7-1.1-2.7-1.1c-1.9,0.1-3.9,1.7-3.8,3.8c0.2,2,0.7,3.8,1.7,5.5
				c1,1.7,2.3,3,3.9,4.1c2.9,2.1,6.7,2.9,10.2,2.1c1.9-0.4,3.2-2.8,2.6-4.6C79.9,579.7,78,578.7,76,579.1L76,579.1z"/>
		</g>
	</g>
	<g>
		<g>
			<path class="st1" d="M79.4,581.4c1.5,0.3,3,0.4,4.6,0.2c1.8-0.2,3.5-0.7,5.2-1.4c2.8-1.2,5.1-3.3,6.8-5.9
				c1.1-1.6,0.4-4.2-1.3-5.1c-1.9-1-4-0.4-5.1,1.3c-0.2,0.3-0.9,1.1,0,0.1c-0.2,0.2-0.3,0.4-0.5,0.6c-0.4,0.4-0.8,0.8-1.2,1.2
				c-0.4,0.3,0.3-0.2,0.3-0.3c-0.1,0-0.3,0.2-0.4,0.3c-0.2,0.2-0.4,0.3-0.7,0.4c-0.5,0.3-1,0.6-1.6,0.8c0.3-0.1,0.6-0.3,0.9-0.4
				c-1.1,0.4-2.1,0.7-3.3,0.9c0.3,0,0.7-0.1,1-0.1c-1,0.1-2,0.1-3,0c0.3,0,0.7,0.1,1,0.1c-0.2,0-0.4-0.1-0.5-0.1
				c-1-0.2-2-0.2-2.9,0.4c-0.8,0.5-1.5,1.3-1.7,2.2C76.3,578.6,77.3,581.1,79.4,581.4L79.4,581.4z"/>
		</g>
	</g>
	<g>
		<g>
			<path class="st1" d="M129.8,600.8c1.3-15.4,3-30.8,5.1-46.1c0.3-2-1.9-3.8-3.8-3.8c-2.3,0.1-3.5,1.7-3.7,3.8
				c-2,15.3-3.7,30.7-5.1,46.1c-0.2,2,1.8,3.8,3.8,3.8C128.2,604.5,129.6,602.9,129.8,600.8L129.8,600.8z"/>
		</g>
	</g>
	<g>
		<g>
			<path class="st1" d="M128.4,575.7c-1.4-0.3-2.7-0.7-4-1.2c0.3,0.1,0.6,0.3,0.9,0.4c-0.8-0.4-1.6-0.7-2.4-1.2
				c-0.3-0.2-0.6-0.4-1-0.6c-0.2-0.1-0.4-0.3-0.6-0.4c-0.2-0.2-0.7-0.6,0.2,0.1c-0.6-0.5-1.3-1.1-1.8-1.7c-0.3-0.3-0.6-0.6-0.9-1
				c-0.1-0.1-0.2-0.3-0.4-0.4c0.8,0.9,0.2,0.2,0,0c-0.6-0.8-1.2-1.4-2.2-1.7c-0.9-0.2-2.1-0.1-2.9,0.4c-1.6,1-2.6,3.4-1.3,5.1
				c3.5,4.8,8.6,8.4,14.5,9.5c1,0.2,2,0.2,2.9-0.4c0.8-0.5,1.5-1.3,1.7-2.2C131.4,578.5,130.4,576.1,128.4,575.7L128.4,575.7z"/>
		</g>
	</g>
	<g>
		<g>
			<path class="st1" d="M127.6,562.3c-0.8-0.2-1.7-0.4-2.5-0.7c-0.4-0.1-0.7-0.3-1.1-0.4c-0.8-0.3,0.8,0.4,0,0
				c-0.2-0.1-0.4-0.2-0.5-0.2c-0.7-0.4-1.5-0.7-2.1-1.2c-0.4-0.2-0.7-0.5-1.1-0.7c-0.2-0.1-0.3-0.2-0.5-0.3c-0.7-0.5,0.7,0.5,0,0
				c-1.3-1.1-2.4-2.2-3.5-3.4c-0.5-0.6,0.5,0.7,0,0c-0.1-0.2-0.2-0.3-0.3-0.5c-0.2-0.3-0.5-0.7-0.7-1.1c-0.4-0.7-0.8-1.5-1.2-2.3
				c-0.8-1.8-3.5-2.4-5.1-1.3c-1.8,1.2-2.2,3.2-1.3,5.1c3.3,7.1,10.2,12.6,17.9,14.2c1.9,0.4,4.1-0.6,4.6-2.6
				C130.6,565.1,129.7,562.8,127.6,562.3L127.6,562.3z"/>
		</g>
	</g>
	<g>
		<g>
			<path class="st1" d="M132.1,568.4c4.6-3.4,9.4-6.4,14.4-9.1c1.7-0.9,2.4-3.5,1.3-5.1c-1.1-1.8-3.3-2.3-5.1-1.3
				c-5,2.7-9.8,5.7-14.4,9.1c-0.8,0.6-1.4,1.2-1.7,2.2c-0.2,0.9-0.1,2.1,0.4,2.9C128,568.6,130.5,569.7,132.1,568.4L132.1,568.4z"/>
		</g>
	</g>
	<g>
		<g>
			<path class="st1" d="M131.8,579.2c1.8-0.5,3.6-1.1,5.4-1.6c0.9-0.3,1.8-0.9,2.2-1.7c0.3-0.4,0.4-0.9,0.4-1.4
				c0.1-0.5,0.1-1-0.1-1.5c-0.3-0.9-0.9-1.8-1.7-2.2c-0.9-0.5-1.9-0.7-2.9-0.4c-1.8,0.5-3.6,1.1-5.4,1.6c-0.9,0.3-1.8,0.9-2.2,1.7
				c-0.3,0.4-0.4,0.9-0.4,1.4c-0.1,0.5-0.1,1,0.1,1.5c0.3,0.9,0.9,1.8,1.7,2.2C129.8,579.2,130.9,579.4,131.8,579.2L131.8,579.2z"/>
		</g>
	</g>
	<g>
		<g>
			<path class="st1" d="M774.7,607c0.9-6.2,2.1-12.4,3.7-18.5c0.3-1.3-0.4-2.7-1.7-3.1c-1.3-0.4-2.7,0.4-3.1,1.7
				c-1.6,6.1-2.8,12.2-3.7,18.5c-0.2,1.3,0.3,2.7,1.7,3.1C772.8,609,774.5,608.3,774.7,607L774.7,607z"/>
		</g>
	</g>
	<g>
		<g>
			<path class="st1" d="M772,595.4c-0.5-0.3-0.9-0.6-1.3-0.9c0.2,0.1,0.3,0.3,0.5,0.4c-0.9-0.7-1.7-1.5-2.4-2.4
				c0.1,0.2,0.3,0.3,0.4,0.5c-0.7-0.9-1.2-1.8-1.6-2.8c0.1,0.2,0.2,0.4,0.3,0.6c0-0.1-0.1-0.2-0.1-0.3c-0.2-0.6-0.5-1.1-1.1-1.5
				c-0.5-0.3-1.3-0.4-1.9-0.3c-0.6,0.2-1.2,0.6-1.5,1.1c-0.3,0.6-0.5,1.3-0.3,1.9c0.3,0.8,0.7,1.7,1.2,2.5c0.5,0.8,1,1.5,1.6,2.2
				c1.1,1.2,2.4,2.3,3.8,3.1c1.1,0.7,2.8,0.3,3.4-0.9C773.5,597.6,773.2,596.1,772,595.4L772,595.4z"/>
		</g>
	</g>
	<g>
		<g>
			<path class="st1" d="M773.5,600.6c4,0.2,8-0.7,11.6-2.5c1.2-0.6,1.6-2.3,0.9-3.4c-0.8-1.2-2.2-1.5-3.4-0.9
				c-0.4,0.2-0.8,0.4-1.2,0.6c-0.3,0.1-0.2,0.1,0.1,0c-0.1,0-0.2,0.1-0.3,0.1c-0.2,0.1-0.3,0.1-0.5,0.2c-0.8,0.3-1.6,0.5-2.5,0.7
				c-0.4,0.1-0.9,0.2-1.3,0.2c0.7,0,0.1,0-0.1,0c-0.2,0-0.5,0-0.7,0.1c-0.9,0.1-1.7,0.1-2.6,0c-1.3-0.1-2.6,1.2-2.5,2.5
				C771.1,599.6,772.1,600.5,773.5,600.6L773.5,600.6z"/>
		</g>
	</g>
	<g>
		<g>
			<path class="st1" d="M35.6,562.9c-1,12.6-2.5,25-4.7,37.5c2.4,0,4.8,0,7.2,0c-0.1-0.6-0.2-1.2-0.4-1.9c-0.4-2-2.8-3.1-4.6-2.6
				c-2.1,0.6-3,2.6-2.6,4.6c0.1,0.6,0.2,1.2,0.4,1.9c0.7,3.5,6.6,3.6,7.2,0c2.3-13.1,4-26.2,5-39.5c0.1-2-1.8-3.8-3.8-3.8
				C37.2,559.3,35.8,560.8,35.6,562.9L35.6,562.9z"/>
		</g>
	</g>
	<g>
		<g>
			<path class="st1" d="M173.6,565.8c1.6-20,4.6-39.7,7.8-59.6c0.9-5.7,1.9-11.3,2.8-17c0.3-1.9-0.5-4.1-2.6-4.6
				c-1.8-0.4-4.3,0.6-4.6,2.6c-3.4,20.3-6.8,40.7-9.2,61.2c-0.7,5.8-1.3,11.6-1.7,17.4c-0.2,2,1.8,3.8,3.8,3.8
				C172,569.5,173.4,567.9,173.6,565.8L173.6,565.8z"/>
		</g>
	</g>
	<g>
		<g>
			<path class="st1" d="M172.9,530.3c-1.3-0.8-2.6-1.6-3.8-2.5c-1.3-0.9-1.9-1.4-3.1-2.5c-2.3-2-4.5-4.1-6.5-6.4
				c-3.6-4.2-6.9-9.5-9.2-15c-0.8-1.9-3.5-2.3-5.1-1.3c-1.9,1.1-2.1,3.3-1.3,5.1c5.1,12,14.2,22.3,25.3,29.1
				c1.7,1.1,4.1,0.4,5.1-1.3C175.3,533.7,174.7,531.4,172.9,530.3L172.9,530.3z"/>
		</g>
	</g>
	<g>
		<g>
			<path class="st1" d="M177.2,505.7c-1.7-1-3.4-2.1-5.1-3.3c-0.2-0.1-0.4-0.3-0.6-0.4c0.4,0.3,0.2,0.2-0.1-0.1
				c-0.4-0.3-0.8-0.6-1.1-0.9c-0.8-0.7-1.6-1.4-2.3-2.1c-1.4-1.4-2.8-2.8-4.1-4.3c-0.3-0.4-0.6-0.8-0.9-1.1
				c-0.2-0.2-0.4-0.5-0.6-0.7c0.3,0.4,0.2,0.3,0-0.1c-0.3-0.4-0.6-0.8-0.9-1.2c-0.1-0.2-0.3-0.4-0.4-0.6c-0.1-0.1-0.1-0.2-0.2-0.2
				c-0.2-0.4-0.2-0.3,0.1,0.2c0,0.7,0,1.3,0,2c0-0.1,0-0.2,0.1-0.2c-0.3,0.6-0.6,1.1-1,1.7c0,0,0.1-0.1,0.1-0.1
				c-0.6,0.3-1.1,0.6-1.7,1c-0.5,0-1.1,0-1.6,0c-0.6-0.3-1.1-0.6-1.7-1c0,0,0.1,0.1,0.1,0.1c-0.3-0.6-0.6-1.1-1-1.7c0,0,0,0.1,0,0.1
				c0.1-1,0.3-1.9,0.4-2.9c0,0,0,0.1,0,0.1c-0.4,1-0.7,1.8-0.4,2.9c0.2,0.9,0.9,1.8,1.7,2.2c1.6,0.8,4.3,0.6,5.1-1.3
				c0.4-1,0.8-1.9,0.4-3c-0.2-0.7-0.5-1.3-1-1.8c-1-1-2.6-1.5-4-1.1c-1.5,0.4-2.6,1.5-2.9,3c-0.3,1.4,0.1,2.7,0.8,3.9
				c1.6,2.4,3.5,4.7,5.5,6.9c3.9,4.2,8.4,7.8,13.3,10.6c1.7,1,4.2,0.4,5.1-1.3C179.5,509,179.1,506.7,177.2,505.7L177.2,505.7z"/>
		</g>
	</g>
	<g>
		<g>
			<path class="st1" d="M178.3,522.2c10.5-6.4,19.5-15,26.6-25.1c1.2-1.7,0.3-4.2-1.3-5.1c-1.9-1.1-4-0.3-5.1,1.3
				c-3.1,4.4-6.7,8.6-10.8,12.4c-4.2,3.9-8.2,7-13.1,10c-1.7,1.1-2.4,3.4-1.3,5.1C174.2,522.6,176.6,523.3,178.3,522.2L178.3,522.2z
				"/>
		</g>
	</g>
	<g>
		<g>
			<path class="st1" d="M226.7,501.8c3.1-18.5,6.2-37,9.2-55.5c0.9-5.2,1.7-10.4,2.6-15.6c0.3-1.9-0.5-4.1-2.6-4.6
				c-1.8-0.4-4.3,0.5-4.6,2.6c-3.1,18.5-6.1,36.9-9.2,55.4c-0.9,5.2-1.7,10.5-2.6,15.7c-0.3,1.9,0.5,4.1,2.6,4.6
				C223.9,504.9,226.4,503.9,226.7,501.8L226.7,501.8z"/>
		</g>
	</g>
	<g>
		<g>
			<path class="st1" d="M551.2,356.7c4.8-20.5,9.3-41,13.5-61.6c4.2-20.6,8.2-41.2,12-61.8c2.1-11.7,4.2-23.5,6.1-35.2
				c0.4-2.6-0.7-5.5-3.5-6.2c-2.9-0.7-5.1,0.9-6.2,3.5c-0.3,0.9-0.7,1.8-1.1,2.7c0.4-0.9-0.1,0.2-0.2,0.5c-0.2,0.5-0.4,1-0.7,1.5
				c-0.8,1.8-1.7,3.6-2.6,5.3c-1.8,3.5-3.9,6.8-6.2,10c-0.5,0.7-1.1,1.5-1.6,2.2c-0.1,0.2-0.2,0.3-0.4,0.5c0.6-0.8,0.2-0.3,0.1-0.1
				c-0.3,0.4-0.6,0.8-1,1.2c-1.2,1.4-2.4,2.8-3.7,4.2c-2.5,2.7-5.2,5.3-8.1,7.6c-0.4,0.3-0.8,0.6-1.2,0.9c0.9-0.6-0.1,0.1-0.5,0.3
				c-0.8,0.6-1.6,1.1-2.4,1.7c-1.7,1.1-3.4,2.2-5.2,3.2c-2.3,1.3-3.2,4.6-1.8,6.8c1.5,2.3,4.4,3.2,6.8,1.8
				c14-7.8,25.2-20.2,32.9-34.1c2.4-4.4,4.5-9,6.3-13.6c-3.2-0.9-6.4-1.8-9.6-2.7c-3.5,20.8-7.2,41.6-11.2,62.3
				c-4,20.6-8.2,41.1-12.6,61.6c-2.5,11.6-5.1,23.1-7.8,34.7c-0.6,2.5,0.8,5.5,3.5,6.2C547.6,360.7,550.6,359.4,551.2,356.7
				L551.2,356.7z"/>
		</g>
	</g>
	<g>
		<g>
			<path class="st1" d="M564.6,235.5c-1.2,2.3-2.6,4.5-4.1,6.5c-0.2,0.3-0.6,1.2-0.1,0.1c-0.1,0.2-0.4,0.5-0.5,0.7
				c-0.4,0.5-0.8,1-1.2,1.4c-0.8,0.9-1.7,1.8-2.6,2.7c-0.9,0.8-1.8,1.6-2.7,2.4c-0.2,0.1-0.9,0.6-0.3,0.2c0.7-0.4-0.1,0.1-0.3,0.2
				c-0.5,0.4-1,0.7-1.6,1.1c-0.9,0.6-1.9,1.2-2.9,1.7c-0.5,0.3-1,0.5-1.5,0.8c-0.3,0.1-0.6,0.3-0.8,0.4c-0.9,0.4,1-0.4,0.1,0
				c-1.3,0.5-2.3,1.1-3,2.3c-0.6,1.1-0.9,2.7-0.5,3.9c0.8,2.3,3.6,4.5,6.2,3.5c10.7-4.3,19.1-12.6,24.4-22.7
				c1.2-2.3,0.7-5.5-1.8-6.8C569.1,232.5,565.9,233,564.6,235.5L564.6,235.5z"/>
		</g>
	</g>
	<g>
		<g>
			<path class="st1" d="M591,363.2c2.6-18.4,5.6-36.8,9-55.1c3.4-18.3,7.2-36.5,11.4-54.7c4.1-18,8.6-35.8,13.5-53.6
				c4.9-17.7,10.1-35.2,15.7-52.7c5.6-17.3,11.5-34.5,17.9-51.6c0.8-2.1,1.6-4.3,2.4-6.4c0.9-2.5-1-5.6-3.5-6.2
				c-2.8-0.6-5.2,0.9-6.2,3.5c-6.4,17-12.5,34.1-18.1,51.4c-5.7,17.5-11.1,35.1-16.1,52.8c-5,17.7-9.6,35.6-13.8,53.5
				c-4.2,18-8.1,36.1-11.6,54.3c-3.5,18.3-6.6,36.6-9.3,55c-0.3,2.3-0.7,4.7-1,7c-0.4,2.6,0.6,5.5,3.5,6.2
				C587.2,367.3,590.6,366,591,363.2L591,363.2z"/>
		</g>
	</g>
	<g>
		<g>
			<path class="st1" d="M650.4,84.6c-0.1,0.5-0.3,1-0.4,1.4c-0.1,0.2-0.2,0.5-0.3,0.7c0.3-0.6,0.3-0.7,0.1-0.2
				c-0.4,0.8-0.8,1.6-1.3,2.4c-0.1,0.2-0.3,0.4-0.4,0.6c-0.3,0.4-0.3,0.4,0.2-0.2c-0.1,0.3-0.6,0.8-0.9,1c-0.6,0.7-1.2,1.3-1.9,1.8
				c-0.2,0.1-0.3,0.3-0.5,0.4c-0.4,0.3-0.3,0.3,0.2-0.2c-0.1,0.2-0.9,0.6-1.1,0.8c-0.7,0.5-1.5,0.9-2.3,1.4
				c-0.8,0.4-1.6,0.8-2.4,1.2c-0.4,0.2-0.8,0.4-1.2,0.5c-0.9,0.4,1-0.4-0.2,0.1c-9,3.5-18.2,6.4-27.4,9.5c-2.8,1-5,4.5-3,7.3
				c2.2,3.1,5.5,4.2,9.1,2.5c2.4-1.1,3.2-4.7,1.8-6.8c-1.6-2.4-4.3-3-6.8-1.8c1.9-0.9,3.4-0.5,4.6,1.1c-1,2.4-2,4.9-3,7.3
				c8-2.8,16.1-5.4,24-8.3c6-2.1,12-4.8,16.5-9.4c2.9-3,4.9-6.6,6-10.6c0.7-2.5-0.9-5.6-3.5-6.2C653.9,80.5,651.2,81.9,650.4,84.6
				L650.4,84.6z"/>
		</g>
	</g>
	<g>
		<g>
			<path class="st1" d="M673,398.7c2.3-22.3,4.9-44.5,7.8-66.7c2.9-21.9,6-43.9,9.5-65.8c3.5-22.1,7.3-44.2,11.3-66.2
				c4.1-22.1,8.5-44.2,13.1-66.2c4.7-21.9,9.6-43.8,14.8-65.6c0.6-2.7,1.3-5.4,2-8.1c0.6-2.6-0.8-5.4-3.5-6.2
				c-2.5-0.7-5.5,0.9-6.2,3.5c-5.3,21.9-10.4,43.8-15.1,65.9c-4.7,22-9.2,44.1-13.3,66.2c-4.2,22.1-8,44.3-11.6,66.5
				c-3.6,22.4-6.9,44.9-9.9,67.4c-3,22.3-5.7,44.6-8,67c-0.3,2.8-0.6,5.5-0.9,8.3c-0.3,2.7,2.5,5,5,5
				C670.9,403.7,672.7,401.4,673,398.7L673,398.7z"/>
		</g>
	</g>
	<g>
		<g>
			<path class="st1" d="M721.8,59.6c-0.8,2-1.5,4-2.4,6c0.4-0.9-0.1,0.3-0.3,0.6c-0.2,0.5-0.4,0.9-0.6,1.4c-0.4,1-0.9,2-1.3,2.9
				c-1.8,3.8-3.7,7.5-5.8,11.1c-2.1,3.6-4.3,7.1-6.7,10.5c-0.6,0.8-1.1,1.6-1.7,2.3c-0.3,0.4-0.6,0.8-0.9,1.1
				c-0.1,0.2-0.2,0.3-0.4,0.5c-0.8,1,0.4-0.5-0.1,0.1c-1.3,1.6-2.5,3.2-3.9,4.7c-2.9,3.4-6,6.6-9.2,9.6c-1.9,1.8-1.9,5.3,0,7.1
				c2.1,1.9,5,1.9,7.1,0C708,106,718,91.8,725.3,76.7c2.3-4.7,4.3-9.6,6.1-14.5c0.9-2.5-1-5.6-3.5-6.2
				C725.1,55.4,722.8,56.9,721.8,59.6L721.8,59.6z"/>
		</g>
	</g>
	<g>
		<g>
			<path class="st1" d="M729.2,335.7c-2.4-1.3-4.7-2.8-6.9-4.5c-0.2-0.2-0.4-0.3-0.6-0.5c1,0.7-0.1-0.1-0.2-0.2
				c-0.5-0.4-0.9-0.7-1.4-1.1c-1-0.9-2.1-1.8-3.1-2.8c-2-1.9-3.9-3.9-5.6-6.1c-0.4-0.5-0.7-0.9-1.1-1.4c-0.5-0.6,0.7,0.9-0.1-0.1
				c-0.2-0.2-0.3-0.4-0.5-0.6c-0.9-1.2-1.7-2.4-2.5-3.6c-1.5-2.3-2.9-4.6-4.1-7c-0.6-1.1-1.1-2.2-1.7-3.4c-0.3-0.7-0.6-1.3-0.9-2
				c0-0.1-0.6-1.5-0.2-0.5c-0.2-0.4-0.3-0.8-0.5-1.3c-2.3-5.8-4-11.8-5.3-17.9c-0.3-1.6-0.7-3.3-0.9-4.9c-0.2-0.9-0.3-1.8-0.4-2.7
				c0-0.3-0.1-0.6-0.1-0.9c-0.1-0.6-0.1-0.6,0,0c0-0.3-0.1-0.6-0.1-0.9c-0.4-3.5-0.7-7-1-10.5c-0.2-2.6-2.2-5.1-5-5
				c-2.6,0.1-5.2,2.2-5,5c1.5,25.2,8.5,51,26.6,69.5c4.6,4.7,9.9,8.8,15.6,12c2.3,1.3,5.6,0.6,6.8-1.8
				C732.2,340.2,731.6,337,729.2,335.7L729.2,335.7z"/>
		</g>
	</g>
	<g>
		<g>
			<path class="st1" d="M230.6,441.4c-3.4,3.5-6.9,6.8-10.5,9.9c-3.7,3.2-7.1,6-10.8,8.7c-1.6,1.2-2.5,3.3-1.3,5.1
				c1,1.6,3.4,2.6,5.1,1.3c8.1-6,15.8-12.6,22.8-19.8c1.4-1.4,1.5-3.9,0-5.3C234.5,440,232.1,439.9,230.6,441.4L230.6,441.4z"/>
		</g>
	</g>
	<g>
		<g>
			<path class="st1" d="M232.5,433.5c1.1,5.8,4.6,10.9,9.3,14.3c0.7,0.5,2,0.6,2.9,0.4c0.9-0.2,1.8-0.9,2.2-1.7
				c0.5-0.9,0.7-1.9,0.4-2.9c-0.3-1-0.9-1.6-1.7-2.2c-0.2-0.1-0.3-0.2-0.5-0.3c0.3,0.2,0.5,0.4,0.8,0.6c-1.3-1-2.4-2.2-3.4-3.4
				c0.2,0.3,0.4,0.5,0.6,0.8c-1-1.3-1.9-2.8-2.5-4.4c0.1,0.3,0.3,0.6,0.4,0.9c-0.5-1.3-0.9-2.6-1.2-3.9c-0.2-0.9-1-1.8-1.7-2.2
				c-0.8-0.5-2-0.7-2.9-0.4c-0.9,0.3-1.8,0.9-2.2,1.7C232.4,431.5,232.3,432.5,232.5,433.5L232.5,433.5z"/>
		</g>
	</g>
	<g>
		<g>
			<path class="st1" d="M271.9,447.8c1.6-24.5,3.1-49,4.7-73.6c0.4-7,0.9-13.9,1.3-20.9c0.2-2.5-2-4.6-4.3-4.9
				c-2.5-0.3-4.7,1.2-5.5,3.6c-0.6,1.8-1.2,3.5-1.9,5.2c-0.2,0.4-0.4,0.9-0.5,1.3c0.3-0.8,0-0.1-0.1,0.3c-0.4,0.9-0.8,1.7-1.2,2.6
				c-1.5,3.2-3.3,6.3-5.3,9.3c-1,1.5-2,2.9-3.1,4.4c-0.7,0.9,0.4-0.5-0.2,0.3c-0.3,0.4-0.7,0.9-1,1.3c-0.5,0.6-1.1,1.3-1.6,1.9
				c-2.4,2.8-5.1,5.4-7.8,7.8c-2,1.7-1.9,5.3,0,7.1c2.1,1.9,5,1.8,7.1,0c11.8-10.3,20.6-23.9,25.3-38.8c-3.3-0.4-6.5-0.9-9.8-1.3
				c-1.6,24.5-3.1,49-4.7,73.6c-0.4,7-0.9,13.9-1.3,20.9c-0.2,2.6,2.4,5.1,5,5C269.8,452.6,271.7,450.6,271.9,447.8L271.9,447.8z"/>
		</g>
	</g>
	<g>
		<g>
			<path class="st1" d="M267.6,383.8c-3.1,3.7-6.5,7.1-10.1,10.3c-0.9,0.8-1.7,1.5-2.6,2.2c-0.5,0.4-1,0.8-1.5,1.2
				c-0.5,0.4-0.2,0.2,0.1-0.1c-0.2,0.2-0.5,0.4-0.8,0.6c-2,1.5-4,2.9-6.1,4.2c2,2.6,4,5.2,6.1,7.9c0.5-0.5,1.1-1.1,1.6-1.6
				c1.9-1.8,2-5.3,0-7.1c-2-1.9-5.1-2-7.1,0c-0.5,0.5-1.1,1.1-1.6,1.6c-1.8,1.7-1.9,4.6-0.4,6.6c1.5,1.9,4.3,2.6,6.5,1.3
				c8.6-5.5,16.4-12.2,23-20c1.7-2,2.1-5.1,0-7.1C272.8,382.1,269.4,381.7,267.6,383.8L267.6,383.8z"/>
		</g>
	</g>
	<g>
		<g>
			<path class="st1" d="M270,354c0.1,10.5,4,20.5,10.8,28.6c1.7,2,5.4,1.9,7.1,0c2-2.1,1.8-4.9,0-7.1c-0.1-0.2-1.2-1.6-0.5-0.6
				c-0.3-0.4-0.7-0.9-1-1.4c-0.6-0.9-1.2-1.9-1.8-2.8c-0.5-0.8-0.9-1.7-1.4-2.6c-0.1-0.2-0.8-1.8-0.3-0.7c-0.2-0.5-0.4-1-0.6-1.6
				c-0.7-2-1.3-4-1.7-6.1c-0.1-0.5-0.2-1.1-0.3-1.7c-0.1-0.6-0.1-0.6,0,0.1c0-0.3-0.1-0.6-0.1-0.8c-0.1-1.1-0.2-2.2-0.2-3.3
				c0-2.6-2.3-5.1-5-5C272.3,349.1,270,351.2,270,354L270,354z"/>
		</g>
	</g>
	<g>
		<g>
			<path class="st1" d="M288.3,402.4c-1-0.5-1.9-1-2.8-1.6c-0.3-0.2-0.5-0.4-0.8-0.5c-0.1-0.1-0.9-0.7-0.3-0.2
				c0.6,0.5-0.2-0.1-0.2-0.2c-0.2-0.2-0.4-0.3-0.6-0.5c-0.8-0.7-1.6-1.4-2.3-2.2c-0.3-0.3-1.4-1.8-0.5-0.6c-0.3-0.4-0.6-0.9-0.9-1.3
				c-0.6-0.9-1.1-1.8-1.6-2.7c-0.1-0.2-0.5-1.4-0.7-1.4c0.3,0.7,0.3,0.8,0.2,0.5c0-0.1-0.1-0.2-0.1-0.3c-0.1-0.2-0.2-0.5-0.3-0.7
				c-0.4-1-0.7-2.1-0.9-3.2c-0.1-0.3-0.1-0.5-0.2-0.8c0-0.2-0.1-1.1-0.1-0.3c0.1,0.9,0-0.1,0-0.3c0-0.3-0.1-0.6-0.1-1
				c-0.2-2.6-2.2-5.1-5-5c-2.6,0.1-5.2,2.2-5,5c0.7,10.9,7.1,21.2,17.1,26c2.4,1.1,5.5,0.7,6.8-1.8
				C291.3,407,290.9,403.6,288.3,402.4L288.3,402.4z"/>
		</g>
	</g>
	<g>
		<g>
			<path class="st1" d="M315.6,400.9c3-31.9,6-63.9,8.9-95.8c0.8-8.9,1.7-17.9,2.5-26.8c0.2-2.1-1.7-4.4-3.7-4.8
				c-2-0.5-4.7,0.3-5.6,2.3c-3.9,8.4-8.3,16.6-13.2,24.5c-2.4,3.9-5,7.8-7.6,11.5c-1.3,1.9-2.6,3.7-4,5.5c-0.7,1-1.5,1.9-2.2,2.9
				c0.6-0.8-0.5,0.6-0.6,0.8c-0.4,0.5-0.7,0.9-1.1,1.4c-1.6,2-2.1,5.1,0,7.1c1.8,1.7,5.3,2.2,7.1,0c11.9-15,22.2-31.3,30.3-48.7
				c-3.1-0.8-6.2-1.7-9.3-2.5c-3,31.9-6,63.9-8.9,95.8c-0.8,8.9-1.7,17.9-2.5,26.8c-0.2,2.6,2.5,5.1,5,5
				C313.5,405.8,315.3,403.7,315.6,400.9L315.6,400.9z"/>
		</g>
	</g>
	<g>
		<g>
			<path class="st1" d="M313.2,314.1c-1.4,3.2-2.9,6.3-4.8,9.2c-0.9,1.5-1.9,2.9-2.9,4.3c-0.2,0.3-0.5,0.6-0.7,1
				c-0.1,0.1-0.9,1.2-0.2,0.3c-0.5,0.7-1.1,1.3-1.6,2c-2.2,2.6-4.6,5-7.1,7.3c-0.6,0.5-1.2,1-1.8,1.6c-0.4,0.3-0.7,0.6-1.1,0.9
				c-0.3,0.2-0.2,0.2,0.2-0.2c-0.2,0.2-0.4,0.3-0.6,0.5c-1.4,1-2.8,2-4.3,2.9c-2.1,1.4-3,3.9-2,6.2c1,2.4,3.4,3.3,5.9,2.9
				c0.7-0.1,1.3-0.2,2-0.3c2.6-0.4,4.3-3.8,3.5-6.2c-0.9-2.8-3.4-4-6.2-3.5c-0.7,0.1-1.3,0.2-2,0.3c1.3,3,2.6,6.1,3.9,9.1
				c12.5-8,22.6-19.6,28.4-33.3c0.6-1.3,0.9-2.4,0.5-3.9c-0.3-1.2-1.2-2.4-2.3-3C317.9,311.2,314.3,311.6,313.2,314.1L313.2,314.1z"
				/>
		</g>
	</g>
	<g>
		<g>
			<path class="st1" d="M311.7,340.9c-1.6,2.4-3.2,4.7-4.9,7c-0.4,0.5-0.8,1.1-1.2,1.6c-0.3,0.4,0.4-0.5-0.2,0.2
				c-0.2,0.3-0.5,0.6-0.7,0.9c-0.9,1.1-1.8,2.2-2.7,3.3c-3.7,4.4-7.6,8.6-11.7,12.5c-1.9,1.8-2,5.3,0,7.1c2,1.9,5.1,1.9,7.1,0
				c8.7-8.3,16.4-17.6,23-27.6c1.4-2.2,0.5-5.6-1.8-6.8C316,337.8,313.2,338.5,311.7,340.9L311.7,340.9z"/>
		</g>
	</g>
	<g>
		<g>
			<path class="st1" d="M337,347.7c-3.1-1.6-6.2-3.2-9-5.3c0.3,0.3,0.7,0.5,1,0.8c-1.4-1.1-2.7-2.3-3.8-3.7c0.3,0.3,0.5,0.7,0.8,1
				c-0.9-1.2-1.7-2.4-2.2-3.8c0.2,0.4,0.3,0.8,0.5,1.2c-0.4-1-0.7-2.1-0.9-3.2c0.1,0.4,0.1,0.9,0.2,1.3c0-0.1,0-0.2,0-0.3
				c-0.2-1.4-0.4-2.5-1.5-3.5c-0.9-0.9-2.3-1.5-3.5-1.5c-1.3,0.1-2.6,0.5-3.5,1.5c-0.8,0.9-1.6,2.3-1.5,3.5c0.3,2.7,1,5.2,2.4,7.6
				c1.1,2,2.6,3.8,4.2,5.4c3.4,3.3,7.6,5.5,11.8,7.6c2.3,1.2,5.5,0.7,6.8-1.8C340,352.3,339.5,348.9,337,347.7L337,347.7z"/>
		</g>
	</g>
	<g>
		<g>
			<path class="st1" d="M349.3,326.5c-2.7-2.3-5.2-4.8-7.5-7.6c-0.3-0.3-0.5-0.7-0.8-1c-0.4-0.4,0.1,0.1,0.1,0.2
				c-0.1-0.2-0.3-0.3-0.4-0.5c-0.5-0.7-1.1-1.5-1.6-2.2c-1-1.4-1.9-2.9-2.7-4.5c-0.9-1.6-1.7-3.2-2.4-4.8c-0.1-0.2-0.4-0.9,0-0.1
				c-0.1-0.2-0.2-0.4-0.3-0.6c-0.2-0.4-0.3-0.9-0.5-1.3c-0.3-0.9-0.7-1.9-1-2.8c-1.2-3.7-2.1-7.6-2.7-11.4c0-0.1-0.1-0.8,0-0.3
				c0.1,0.5-0.1-0.4-0.1-0.5c-0.1-0.6-0.1-1.3-0.2-1.9c-0.1-1.1-0.2-2.2-0.2-3.3c-0.1-2.3-0.1-4.6,0-6.9c0.1-2.6-2.4-5.1-5-5
				c-2.8,0.1-4.9,2.2-5,5c-0.8,16.9,4,34,14.5,47.4c2.6,3.3,5.5,6.3,8.7,9c2,1.7,5.1,2.1,7.1,0C351,331.7,351.4,328.3,349.3,326.5
				L349.3,326.5z"/>
		</g>
	</g>
	<g>
		<g>
			<path class="st1" d="M373.7,350.5c1-27.2,2-54.4,4.1-81.5c1-13.4,2.3-26.7,4-40c0.2-1.6,0.4-3.2,0.6-4.9
				c-0.1,1.1,0.1-0.5,0.1-0.6c0-0.3,0.1-0.6,0.1-1c0.1-1,0.3-1.9,0.4-2.9c0.5-3.4,1-6.8,1.5-10.2c1.1-6.6,2.2-13.3,3.5-19.9
				c2.9-15,6.3-29.9,9.6-44.8c0.6-2.4-0.5-4.9-2.9-5.9c-2.1-0.9-5.2-0.2-6.2,2c-3.5,7.3-7.7,14.2-12.6,20.6
				c-0.1,0.1-0.6,0.8-0.2,0.3c0.4-0.5-0.1,0.1-0.1,0.1c-0.3,0.4-0.7,0.9-1,1.3c-0.6,0.8-1.3,1.6-1.9,2.4c-1.3,1.6-2.7,3.1-4.1,4.6
				c-2.7,2.9-5.6,5.7-8.6,8.3c-1.7,1.5-3.5,3-5.3,4.4c0.8-0.6-0.3,0.2-0.6,0.5c-0.4,0.3-0.9,0.6-1.3,1c-1,0.7-2,1.4-3,2.1
				c-2.2,1.5-3.3,4.5-1.8,6.8c1.4,2.1,4.5,3.4,6.8,1.8c14.2-9.7,26.3-22.2,35.5-36.7c2.5-4,4.8-8.2,6.9-12.4c-3-1.3-6.1-2.6-9.1-3.9
				c-6,26.6-11.8,53.2-15.4,80.2c-3.7,27.3-5.7,54.8-7.1,82.3c-0.8,15.3-1.3,30.6-1.9,45.9c-0.1,2.6,2.4,5.1,5,5
				C371.5,355.4,373.6,353.3,373.7,350.5L373.7,350.5z"/>
		</g>
	</g>
	<g>
		<g>
			<path class="st1" d="M377.6,191.5c-0.5,0.7-1,1.4-1.5,2.1c-0.3,0.4-0.6,0.7-0.8,1.1c0.6-0.8-0.2,0.3-0.4,0.6
				c-1.1,1.4-2.3,2.8-3.5,4.1c-2.5,2.8-5.1,5.4-7.9,7.8c-1.3,1.2-2.7,2.3-4.1,3.4c-0.2,0.1-0.8,0.6,0.1,0c-0.2,0.1-0.3,0.2-0.5,0.4
				c-0.4,0.3-0.7,0.6-1.1,0.8c-0.7,0.5-1.5,1.1-2.3,1.6c-3,2.1-6.1,4-9.4,5.7c-1.8,1-3.7,1.9-5.5,2.7c-0.5,0.2-1,0.4-1.5,0.6
				c-0.1,0-0.7,0.3-0.1,0.1c0.7-0.3-0.5,0.2-0.5,0.2c-1,0.4-2,0.8-3,1.1c-2.4,0.9-4.4,3.4-3.5,6.2c0.8,2.4,3.5,4.5,6.2,3.5
				c14.9-5.5,28.5-14.4,39.3-26.1c3.2-3.4,6.1-7.1,8.8-10.9c1.5-2.1,0.5-5.6-1.8-6.8C381.9,188.4,379.2,189.2,377.6,191.5
				L377.6,191.5z"/>
		</g>
	</g>
	<g>
		<g>
			<path class="st1" d="M371.7,225.8c-0.9,1.5-1.8,2.9-2.8,4.3c-0.3,0.4-0.6,0.8-0.9,1.3c-0.6,0.9,0.5-0.7-0.2,0.2
				c-0.5,0.6-1,1.2-1.5,1.8c-2.2,2.7-4.7,5.1-7.3,7.4c-0.6,0.6-1.3,1.1-2,1.6c-0.1,0.1-1.2,0.9-0.2,0.2c-0.4,0.3-0.7,0.6-1.1,0.8
				c-1.4,1-2.8,2-4.2,2.8c-1.5,0.9-2.9,1.7-4.5,2.5c-0.8,0.4-1.5,0.8-2.3,1.1c-0.4,0.2-0.7,0.3-1.1,0.5c-0.2,0.1-0.5,0.2-0.7,0.3
				c0.6-0.2,0.6-0.3,0.1,0c-2.4,1-4.4,3.4-3.5,6.2c0.8,2.3,3.6,4.6,6.2,3.5c14.4-5.9,26.6-16.1,34.7-29.5c1.4-2.2,0.6-5.6-1.8-6.8
				C376.1,222.7,373.2,223.4,371.7,225.8L371.7,225.8z"/>
		</g>
	</g>
	<g>
		<g>
			<path class="st1" d="M422.1,340.2c5-29.2,9.4-58.5,13.2-87.9c1-8.2,2-16.4,3-24.5c0.3-2.6-2.5-5.1-5-5c-3,0.1-4.7,2.2-5,5
				c-0.8,7.2-1.7,14.4-2.6,21.6c-0.5,3.6-0.9,7.2-1.4,10.8c-0.1,1-0.3,2-0.4,2.9c0,0.3-0.1,0.7-0.1,1c0.1-1-0.1,0.6-0.1,0.6
				c-0.2,1.8-0.5,3.6-0.7,5.4c-2,14.4-4.1,28.7-6.4,43c-1.3,8.1-2.7,16.3-4.1,24.4c-0.4,2.6,0.7,5.5,3.5,6.2
				C418.4,344.2,421.6,342.9,422.1,340.2L422.1,340.2z"/>
		</g>
	</g>
	<g>
		<g>
			<path class="st1" d="M398.3,280.3c-0.3-0.1-1.2-0.6-0.1,0c-0.3-0.2-0.7-0.3-1-0.4c-0.6-0.3-1.2-0.6-1.7-0.9
				c-1.2-0.6-2.3-1.3-3.5-2.1c-0.5-0.4-1.1-0.7-1.6-1.1c-0.5-0.4,0.8,0.6,0,0c-0.3-0.2-0.5-0.4-0.8-0.7c-1-0.9-2-1.8-2.9-2.8
				c-0.4-0.5-0.9-0.9-1.3-1.4c-0.2-0.3-0.5-0.5-0.7-0.8c-0.1-0.1-0.7-0.9-0.3-0.3c0.5,0.6-0.3-0.4-0.3-0.5c-0.2-0.2-0.3-0.5-0.5-0.7
				c-0.4-0.6-0.8-1.2-1.1-1.8c-0.7-1.1-1.3-2.2-1.8-3.4c-0.2-0.3-0.3-0.6-0.4-1c-0.5-1.1,0.4,1,0-0.1c-0.2-0.7-0.5-1.3-0.7-2
				c-0.8-2.5-3.5-4.4-6.2-3.5c-2.5,0.8-4.4,3.5-3.5,6.2c4.1,12.4,13.6,22.2,25.8,26.9c2.4,1,5.6-1,6.2-3.5
				C402.4,283.5,400.9,281.3,398.3,280.3L398.3,280.3z"/>
		</g>
	</g>
	<g>
		<g>
			<path class="st1" d="M402.9,243.5c-0.2-0.1-1.8-0.6-0.6-0.2c-0.4-0.1-0.7-0.3-1-0.5c-0.8-0.4-1.6-0.8-2.4-1.3
				c-0.8-0.5-1.5-0.9-2.3-1.5c-0.2-0.1-1.6-1.1-0.5-0.4c-0.3-0.2-0.6-0.5-0.9-0.7c-1.4-1.2-2.6-2.4-3.8-3.8c-0.1-0.1-1-1.2-0.6-0.7
				c0.4,0.6-0.4-0.6-0.5-0.7c-0.5-0.7-1-1.5-1.5-2.3c-0.5-0.8-0.9-1.7-1.3-2.5c-0.2-0.3-0.5-1.2-0.2-0.4c-0.2-0.5-0.4-1.1-0.6-1.6
				c-0.7-1.9-1.1-3.8-1.4-5.8c-0.2-1.4,0.1,1,0-0.4c0-0.6-0.1-1.1-0.1-1.7c-0.1-1-0.1-2,0-3c0-0.9,0.1-1.8,0.2-2.8
				c0-0.4,0-0.3,0,0.3c0-0.3,0.1-0.6,0.1-0.8c0.1-0.6,0.2-1.1,0.3-1.7c0.6-2.5-0.8-5.5-3.5-6.2c-2.5-0.6-5.5,0.8-6.2,3.5
				c-2.2,9.4-0.8,19.6,4.1,28c4.5,7.7,11.7,13.5,20.1,16.6c2.5,0.9,5.6-1,6.2-3.5C407.1,246.8,405.6,244.5,402.9,243.5L402.9,243.5z
				"/>
		</g>
	</g>
	<g>
		<g>
			<path class="st1" d="M409.4,207.8c-2.2-2.2-4.3-4.5-6.2-7c-0.4-0.5,0.5,0.6-0.1-0.1c-0.2-0.3-0.5-0.7-0.7-1c-0.5-0.7-1-1.4-1.4-2
				c-0.9-1.3-1.7-2.6-2.4-3.9c-1.5-2.6-2.9-5.4-4.1-8.1c0.5,1.1-0.1-0.2-0.1-0.3c-0.2-0.4-0.3-0.8-0.5-1.2c-0.2-0.6-0.5-1.3-0.7-1.9
				c-0.5-1.6-1-3.2-1.5-4.8c-0.7-2.5-3.6-4.3-6.2-3.5c-2.6,0.8-4.2,3.4-3.5,6.2c3.6,13.1,10.7,25.2,20.4,34.8c1.9,1.8,5.2,2,7.1,0
				C411.2,212.9,411.4,209.8,409.4,207.8L409.4,207.8z"/>
		</g>
	</g>
	<g>
		<g>
			<path class="st1" d="M388.7,145.6c-0.6,13.1-0.7,27.6,7.2,38.8c1.5,2.1,4.4,3.3,6.8,1.8c2.1-1.4,3.4-4.6,1.8-6.8
				c-0.9-1.3-1.7-2.6-2.4-3.9c-0.1-0.3-0.3-0.6-0.4-0.9c-0.1-0.2-0.2-0.5-0.3-0.7c0.1,0.2,0.1,0.3,0.2,0.5c-0.4-0.6-0.6-1.5-0.8-2.2
				c-0.5-1.4-0.8-2.8-1.1-4.2c-0.2-0.8-0.3-1.6-0.5-2.4c-0.1-0.3-0.1-0.7-0.2-1c-0.1-0.4,0-0.3,0,0.3c0-0.2-0.1-0.4-0.1-0.6
				c-0.7-6.2-0.5-12.4-0.3-18.6c0.1-2.6-2.4-5.1-5-5C390.9,140.8,388.8,142.8,388.7,145.6L388.7,145.6z"/>
		</g>
	</g>
	<g>
		<g>
			<path class="st1" d="M426.4,228.4c-0.4,1.2-0.8,2.3-1.2,3.5c0.2-0.5,0.3-0.8,0-0.1c-0.1,0.3-0.2,0.5-0.4,0.8
				c-0.2,0.5-0.5,1-0.8,1.5c-0.6,1.1-1.2,2.1-1.9,3.1c-0.3,0.5-0.6,0.9-1,1.4c-0.7,0.9,0.7-0.8,0,0c-0.2,0.2-0.4,0.4-0.5,0.6
				c-1.5,1.8-3.2,3.4-5,4.9c-0.6,0.5-0.4,0.2,0.1-0.1c-0.3,0.1-0.6,0.4-0.8,0.6c-0.5,0.3-0.9,0.6-1.4,0.9c-1,0.7-2.1,1.3-3.2,1.8
				c-2.3,1.2-3.2,4.7-1.8,6.8c1.5,2.4,4.3,3.1,6.8,1.8c10-5.1,17.5-14.3,20.7-25c0.8-2.5-0.9-5.6-3.5-6.2
				C429.9,224.3,427.2,225.7,426.4,228.4L426.4,228.4z"/>
		</g>
	</g>
	<g>
		<g>
			<path class="st1" d="M423.7,254.9c-0.4,0.6-0.8,1.1-1.2,1.7c0.3-0.3,0.5-0.7,0.8-1c-1.7,2.2-3.6,4.1-5.8,5.8
				c0.3-0.3,0.7-0.5,1-0.8c-1.7,1.3-3.6,2.5-5.5,3.4c-1.1,0.5-2,1.9-2.3,3c-0.3,1.2-0.2,2.8,0.5,3.9c0.7,1.1,1.7,2,3,2.3
				c1.4,0.3,2.6,0.1,3.9-0.5c5.8-2.9,10.7-7.3,14.3-12.7c0.7-1,0.8-2.7,0.5-3.9c-0.3-1.2-1.2-2.4-2.3-3c-1.2-0.6-2.6-0.9-3.9-0.5
				C425.4,253,424.5,253.8,423.7,254.9L423.7,254.9z"/>
		</g>
	</g>
	<g>
		<g>
			<path class="st1" d="M444.6,337.5c3-19.3,6-38.7,9.1-58c3.1-19.3,6.3-38.6,9.7-57.9c3.4-19.3,6.9-38.5,10.8-57.7
				c3.8-19.2,7.9-38.3,12.4-57.3c4.4-18.9,9.2-37.8,14.4-56.6c0.7-2.4,1.3-4.8,2-7.2c1.5-5.4-6.3-8.8-9.1-3.9
				c-2.9,5.1-6,10-9.4,14.8c-0.8,1.1-1.6,2.2-2.4,3.3c-0.4,0.6-0.9,1.2-1.3,1.7c-0.1,0.1-0.7,0.9-0.3,0.4c0.2-0.3-0.5,0.7-0.6,0.8
				c-1.8,2.3-3.6,4.5-5.5,6.7c-3.8,4.4-7.9,8.6-12.2,12.6c-2.1,2-4.2,3.9-6.4,5.8c-1,0.9-2.1,1.8-3.1,2.6c-0.6,0.5-1.1,0.9-1.7,1.4
				c-0.3,0.2-0.5,0.4-0.8,0.6c-1.2,1,0.7-0.6-0.5,0.4c-5.2,4-10.7,7.7-16.3,11c-2.2,1.3-3.3,4.6-1.8,6.8c1.5,2.3,4.4,3.2,6.8,1.8
				c20.8-12.5,38.9-29.1,53.2-48.7c4-5.4,7.6-11.1,10.9-16.9c-3-1.3-6.1-2.6-9.1-3.9c-5.3,18.8-10.2,37.7-14.8,56.8
				c-4.5,19-8.7,38.1-12.6,57.3c-3.9,19.2-7.5,38.4-10.9,57.7c-3.4,19.3-6.7,38.6-9.8,57.9c-3.1,19.2-6.1,38.5-9.1,57.7
				c-0.4,2.5-0.8,4.9-1.1,7.4c-0.4,2.6,0.7,5.5,3.5,6.2C440.8,341.5,444.2,340.3,444.6,337.5L444.6,337.5z"/>
		</g>
	</g>
	<g>
		<g>
			<path class="st1" d="M478.4,84.9c-0.6,0.8-1.2,1.7-1.8,2.5c-0.3,0.4-0.5,0.7-0.8,1.1c-0.2,0.2-0.4,0.5-0.5,0.7
				c-0.3,0.3-0.3,0.4,0,0c-1.3,1.6-2.5,3.2-3.8,4.8c-2.6,3.2-5.3,6.3-8.1,9.4c-5.5,6.1-11.4,11.9-17.6,17.4
				c-3.5,3.1-7.1,6.1-10.8,9.1c-2.1,1.6-1.8,5.4,0,7.1c2.2,2,4.9,1.7,7.1,0c13.1-10.3,25.1-22.1,35.8-34.9c3.2-3.9,6.3-7.9,9.3-12
				c1.5-2.1,0.4-5.7-1.8-6.8C482.6,81.7,480.1,82.6,478.4,84.9L478.4,84.9z"/>
		</g>
	</g>
	<g>
		<g>
			<path class="st1" d="M470.7,129c-4.9,4.7-7.7,10.9-11.6,16.3c-0.2,0.3-0.4,0.6-0.6,0.9c-0.8,1.1,0.6-0.8-0.2,0.3
				c-0.5,0.6-1,1.2-1.5,1.8c-1.1,1.2-2.2,2.4-3.3,3.6c-1.1,1.1-2.3,2.1-3.4,3.1c-0.3,0.3-0.7,0.5-1,0.8c-1.1,0.9,0.8-0.6-0.3,0.3
				c-0.7,0.5-1.4,1-2.1,1.5c-2.1,1.5-3.3,4.4-1.8,6.8c1.4,2.1,4.5,3.4,6.8,1.8c5.9-4.1,11-9,15.3-14.8c2-2.6,3.6-5.4,5.3-8.1
				c0.9-1.4,1.7-2.7,2.7-4c0.1-0.1,1-1.2,0.2-0.3c0.3-0.3,0.5-0.6,0.8-1c0.6-0.6,1.1-1.2,1.7-1.8c1.9-1.8,2-5.3,0-7.1
				C475.7,127.2,472.7,127.1,470.7,129L470.7,129z"/>
		</g>
	</g>
	<g>
		<g>
			<path class="st1" d="M425.9,197.9c-1.4-1.1-3.2-2-5-1.4c-2,0.8-3.8,2.5-3.7,4.8c0.2,3.3,2.9,6,6.3,5.5c2-0.3,4.1-0.9,6-1.5
				c3.7-1,7.4-2.3,10.9-3.7c7.1-2.9,13.9-6.2,19.8-11c3.2-2.5,5.9-5.6,8.1-9c1.4-2.2,0.5-5.6-1.8-6.8c-2.5-1.3-5.3-0.6-6.8,1.8
				c-0.3,0.4-0.6,0.9-0.9,1.3c-0.1,0.2-0.9,1.2-0.2,0.2c-0.6,0.7-1.2,1.4-1.8,2.1c-1.3,1.3-2.7,2.6-4.1,3.7c0.7-0.5,0.1-0.1-0.3,0.2
				c-0.4,0.3-0.8,0.5-1.1,0.8c-0.7,0.5-1.4,1-2.2,1.4c-1.6,1-3.2,1.9-4.9,2.7c-1.7,0.9-3.5,1.7-5.3,2.5c-0.3,0.1-0.3,0.1,0.1-0.1
				c-0.3,0.1-0.6,0.2-0.9,0.4c-0.4,0.2-0.9,0.3-1.3,0.5c-1,0.4-2,0.8-3,1.1c-2,0.7-4.1,1.4-6.2,2c-1,0.3-2.1,0.6-3.1,0.9
				c-0.4,0.1-0.9,0.2-1.3,0.3c-0.3,0.1-0.6,0.1-0.9,0.2c-0.7,0.1-0.6,0.1,0.2,0c0.8,0.2,1.7,0.5,2.5,0.7c0.7,1.2,1.3,2.5,2,3.7
				c-1.2,1.6-2.4,3.2-3.7,4.8c0,0,0,0,0.1,0c-1.6-0.4-3.2-0.9-4.9-1.3c0,0,0.1,0.1,0.1,0.1c1.1,0.9,2.1,1.5,3.5,1.5
				c1.2,0,2.7-0.5,3.5-1.5C427.6,203.2,428.1,199.6,425.9,197.9L425.9,197.9z"/>
		</g>
	</g>
	<g>
		<g>
			<path class="st1" d="M457.5,200.6c-1.5,1.5-3.1,2.9-4.7,4.3c-0.4,0.3-0.4,0.3,0.1-0.1c-0.2,0.2-0.4,0.3-0.6,0.5
				c-0.4,0.3-0.8,0.6-1.3,0.9c-0.9,0.6-1.7,1.2-2.6,1.7c-1.8,1.1-3.6,2.1-5.5,3.1c-0.9,0.5-1.9,0.9-2.9,1.4c-0.5,0.2-1,0.4-1.5,0.6
				c-0.5,0.2-0.5,0.2,0.1,0c-0.2,0.1-0.4,0.2-0.6,0.2c-7.9,3.3-16.2,5.5-24.5,7.6c-2.5,0.7-4.3,3.6-3.5,6.2c0.8,2.6,3.4,4.2,6.2,3.5
				c13.4-3.5,27.2-7.3,38.8-15c3.4-2.3,6.7-4.9,9.5-7.8c1.8-1.9,2-5.2,0-7.1C462.6,198.7,459.5,198.6,457.5,200.6L457.5,200.6z"/>
		</g>
	</g>
	<g>
		<g>
			<path class="st1" d="M499.9,282.5c-1.9-1.2-3.8-2.5-5.7-3.8c-0.9-0.7-1.8-1.3-2.8-2c-0.2-0.1-0.3-0.3-0.5-0.4
				c-0.6-0.5,0.6,0.5,0,0c-0.5-0.4-1-0.8-1.5-1.2c-3.5-2.9-6.9-5.9-9.9-9.3c-1.5-1.7-3-3.4-4.4-5.2c0.6,0.8-0.4-0.5-0.5-0.7
				c-0.3-0.4-0.6-0.8-0.9-1.2c-0.7-1-1.4-2-2-3c-1.2-1.9-2.3-3.9-3.3-5.9c-0.5-1-0.9-1.9-1.4-2.9c-0.1-0.1-0.4-1-0.2-0.4
				c0.2,0.5,0-0.1-0.1-0.2c-0.3-0.7-0.5-1.3-0.8-2c-0.8-2.3-1.6-4.7-2.1-7.1c-0.3-1.2-0.5-2.5-0.7-3.8c0-0.2-0.2-1.1-0.1-0.4
				c0.1,0.7-0.1-0.5-0.1-0.6c-0.1-0.7-0.1-1.4-0.2-2.1c-0.2-2.6-2.2-5.1-5-5c-2.5,0.1-5.2,2.2-5,5c1.5,20.2,12.9,38,28.2,50.8
				c4.4,3.7,9,7,13.8,10c2.2,1.4,5.6,0.5,6.8-1.8C503,286.9,502.2,284,499.9,282.5L499.9,282.5z"/>
		</g>
	</g>
	<g>
		<g>
			<path class="st1" d="M483.4,307.2c0.4-0.1,0.8,0,1.2,0.1c-0.2-0.1-0.5-0.1-0.7-0.2c1.1,0.4-0.5-0.3-0.7-0.4c-1-0.5-2-1.1-2.9-1.8
				c-0.2-0.2-0.5-0.3-0.7-0.5c0.4,0.3,0.4,0.3,0,0c-0.4-0.4-0.9-0.7-1.3-1.1c-0.8-0.7-1.5-1.3-2.2-2c-3.1-2.9-6.2-5.9-9.1-9
				c-0.7-0.7-1.4-1.5-2-2.3c-0.3-0.4-0.7-0.8-1-1.2c-0.1-0.2-1.2-1.6-0.5-0.6c-1.2-1.6-2.4-3.3-3.4-5.1c-0.5-0.8-1-1.7-1.4-2.6
				c-0.2-0.5-0.5-0.9-0.6-1.4c0.5,1.2-0.1-0.4-0.2-0.6c-0.4-1-0.7-2-0.9-3c-0.1-0.5-0.2-1-0.3-1.5c0-0.3-0.3-2-0.1-0.6
				c-0.3-2.6-2.1-5.1-5-5c-2.4,0.1-5.4,2.2-5,5c0.5,4.2,1.6,8,3.4,11.9c1.6,3.5,3.9,6.7,6.2,9.7c4.5,5.8,9.9,11.1,15.4,15.8
				c1.9,1.6,3.9,3.2,6,4.4c2.5,1.4,5.6,2.8,8.6,1.9c2.5-0.8,4.4-3.5,3.5-6.2C488.8,308.3,486.1,306.4,483.4,307.2L483.4,307.2z"/>
		</g>
	</g>
	<g>
		<g>
			<path class="st1" d="M508.5,224.1c-0.9-0.3-1.9-0.7-2.8-1c-0.3-0.1-1.7-0.6-0.5-0.2c-0.5-0.2-1-0.5-1.5-0.7
				c-1.8-0.9-3.6-1.8-5.4-2.8c-1.7-1-3.4-2.1-5-3.2c-0.4-0.3-0.8-0.6-1.2-0.9c-0.2-0.1-0.4-0.3-0.6-0.4c0.8,0.7,0.3,0.3,0.1,0.1
				c-0.8-0.7-1.6-1.3-2.4-2c-3-2.6-5.8-5.5-8.4-8.6c-0.2-0.2-0.3-0.4-0.5-0.6c-0.6-0.7,0,0.1,0.1,0.1c-0.3-0.3-0.6-0.8-0.9-1.2
				c-0.6-0.8-1.2-1.7-1.8-2.6c-1.1-1.7-2.2-3.4-3.1-5.2c-0.5-1-1-2-1.5-3c-0.2-0.5-0.5-1-0.7-1.5c-0.1-0.2-0.2-0.5-0.3-0.7
				c-0.3-0.6,0.4,0.9,0,0c-0.4-1.1-0.8-2.2-1.2-3.3c-0.2-0.5-0.4-1.1-0.5-1.6c-0.1-0.2-0.1-0.5-0.2-0.7c0-0.1,0-0.2-0.1-0.3
				c0.3,1.2,0,2.3-0.9,3.3c-0.7,0.4-1.5,0.9-2.2,1.3c0.1,0,0.2-0.1,0.2-0.1c2.5-0.8,4.3-3.5,3.5-6.2c-0.8-2.5-3.5-4.3-6.2-3.5
				c-7.7,2.4-2.9,11.9-0.8,16.7c1.8,4.1,4.1,8,6.7,11.7c5.6,7.8,12.6,14.5,20.8,19.7c4.5,2.9,9.4,5.1,14.5,6.9
				c2.5,0.9,5.6-1,6.2-3.5C512.6,227.5,511.1,225.1,508.5,224.1L508.5,224.1z"/>
		</g>
	</g>
	<g>
		<g>
			<path class="st1" d="M501,339.3c8.2-31.1,16.2-62.2,24-93.4c7.7-31.2,15.2-62.5,22.5-93.8c4-17.5,8-35,11.9-52.6
				c0.5-2.5-0.5-4.9-2.9-5.9c-2.3-1-4.9-0.1-6.2,2c-1.2,1.9-2.5,3.8-3.8,5.6c-0.6,0.8-1.2,1.6-1.8,2.4c-0.2,0.2-0.3,0.4-0.5,0.6
				c-0.4,0.6,0.5-0.6,0-0.1c-0.4,0.5-0.7,0.9-1.1,1.4c-2.8,3.4-5.7,6.7-8.9,9.8c-3.2,3.1-6.6,6-10.1,8.8c-0.6,0.5,0.6-0.5,0.1,0
				c-0.2,0.2-0.4,0.3-0.6,0.5c-0.4,0.3-0.7,0.6-1.1,0.8c-1,0.7-1.9,1.4-2.9,2.1c-1.8,1.2-3.7,2.4-5.5,3.6c-4.3,2.6-8.7,4.9-13.3,6.9
				c-2.4,1.1-3.1,4.7-1.8,6.8c1.6,2.5,4.3,2.9,6.8,1.8c16.7-7.4,31.8-18.9,43.5-33c3.5-4.2,6.7-8.6,9.6-13.2c-3-1.3-6.1-2.6-9.1-3.9
				c-7,31.4-14.2,62.7-21.6,94c-7.5,31.3-15.2,62.5-23.1,93.6c-4.5,17.4-9,34.8-13.6,52.2c-0.7,2.5,0.8,5.5,3.5,6.2
				C497.5,343.4,500.3,342,501,339.3L501,339.3z"/>
		</g>
	</g>
	<g>
		<g>
			<path class="st1" d="M533.9,147.5c-1.5,1.6-3.1,3.1-4.8,4.5c-0.2,0.2-0.5,0.4-0.7,0.6c-0.5,0.4,0,0.1,0.1-0.1
				c-0.2,0.4-1,0.8-1.4,1c-0.9,0.6-1.9,1.3-2.8,1.8c-0.9,0.5-1.9,1.1-2.8,1.5c-0.5,0.3-1,0.5-1.5,0.7c-0.2,0.1-0.5,0.2-0.7,0.3
				c-0.8,0.4-0.2,0.3,0,0c-0.1,0.2-1.4,0.5-1.6,0.6c-0.5,0.2-0.9,0.3-1.4,0.5c-1.1,0.4-2.3,0.7-3.4,1c-2.5,0.6-4.3,3.6-3.5,6.2
				c0.9,2.6,3.4,4.2,6.2,3.5c9.7-2.4,18.7-7.8,25.5-15.2c1.8-1.9,2.1-5.2,0-7.1C539.1,145.7,535.8,145.4,533.9,147.5L533.9,147.5z"
				/>
		</g>
	</g>
	<g>
		<g>
			<path class="st1" d="M492.7,44.5c-3,10.6-3.3,22-0.9,32.8c2.1,9.3,6.4,18.5,14.1,24.5c1.3,1,2.7,2,4.2,2.6c2.9,1,6.3-0.6,7.1-3.6
				c0.8-2.8-1-5.8-3.8-6.6c-1.3-0.4-2.9-0.2-4.1,0.5c-1.7,1-2.3,2.6-2.5,4.5c-0.3,2.6,2.5,5.1,5,5c3-0.1,4.7-2.2,5-5
				c0,0,0-0.1,0-0.1c-0.8,1.4-1.7,2.9-2.5,4.3c0,0,0.1,0,0.1,0c-1.3,0.2-2.6,0.3-3.9,0.5c-0.6-0.4-1.2-0.7-1.8-1.1
				c-0.4-0.7-0.9-1.5-1.3-2.2c0,0,0,0.1,0,0.1c0-0.9,0-1.8,0-2.7c0,0.1,0,0.1-0.1,0.2c0.8-1,1.5-2,2.3-3c-0.1,0.1-0.2,0.1-0.3,0.2
				c0.8-0.2,1.7-0.5,2.5-0.7c0.1,0,1.8,0.8,1.4,0.3c-0.1-0.1-0.3-0.2-0.5-0.3c-0.4-0.2-0.7-0.5-1.1-0.8c-0.5-0.3,0.2,0.2,0.3,0.2
				c-0.1-0.1-0.3-0.3-0.4-0.4c-0.3-0.3-0.7-0.6-1-0.9c-0.6-0.6-1.2-1.2-1.7-1.8c-0.3-0.3-0.5-0.6-0.7-0.9c-0.1-0.1-0.3-0.3-0.4-0.4
				c0.1,0.3,0.4,0.6,0.1,0.1c-1-1.4-1.9-2.8-2.7-4.3c-0.4-0.7-0.8-1.5-1.1-2.3c-0.1-0.1-0.2-0.4-0.2-0.5c0,0,0.3,0.8,0.1,0.3
				c-0.2-0.4-0.3-0.8-0.5-1.3c-1.3-3.5-2.2-7.1-2.8-10.8c0-0.3-0.1-0.6-0.1-0.9c0,0.1,0.1,0.8,0,0.2c-0.1-0.5-0.1-0.9-0.2-1.4
				c-0.1-1.1-0.2-2.1-0.2-3.2c-0.1-2-0.1-4,0-6c0.1-1.1,0.1-2.1,0.2-3.2c0.1-0.5,0.1-1.1,0.2-1.6c-0.1,0.9,0,0.1,0,0
				c0.1-0.3,0.1-0.6,0.1-0.9c0.4-2.3,0.9-4.5,1.5-6.7c0.7-2.5-0.9-5.6-3.5-6.2C496.2,40.4,493.4,41.8,492.7,44.5L492.7,44.5z"/>
		</g>
	</g>
	<g>
		<g>
			<path class="st1" d="M506.7,122.8c-0.6,0.1-1.3,0.1-1.9,0.1c-0.1,0-0.6,0-0.7-0.1c0.2,0,0.4,0.1,0.6,0.1c-0.2,0-0.5-0.1-0.7-0.1
				c-0.5-0.1-0.9-0.3-1.4-0.4c-1.2-0.3,0.9,0.5-0.2-0.1c-0.3-0.2-0.7-0.3-1-0.5c-0.5-0.3-1-0.6-1.5-0.9c-0.2-0.2-1-0.6-0.1,0
				c-0.2-0.1-0.4-0.3-0.6-0.5c-1-0.8-1.9-1.8-2.8-2.8c-0.2-0.2-0.4-0.5-0.6-0.8c-0.5-0.6,0.7,1,0-0.1c-0.3-0.5-0.7-1-1-1.5
				c-0.8-1.2-1.5-2.5-2.2-3.8c-0.3-0.5-0.5-1-0.7-1.5c-0.1-0.2-0.6-1.4-0.2-0.4c-0.1-0.3-0.2-0.5-0.3-0.8c-0.5-1.3-0.9-2.6-1.3-4
				c-0.4-1.3-0.6-2.6-0.9-3.9c-0.1-0.3-0.1-0.7-0.2-1c0,0.2,0.1,1,0,0.1c-0.1-0.8-0.2-1.5-0.2-2.3c-0.1-1.3-0.1-2.7,0-4
				c0-0.6,0.1-1.3,0.1-1.9c0-0.4,0.1-0.7,0.1-1c0.1-1.4-0.2,1.1,0.1-0.4c1-6.1,3-12.1,4.8-18c2.1-7,4.2-14,6.3-21
				c0.7-2.5-0.9-5.6-3.5-6.2c-2.7-0.6-5.3,0.8-6.2,3.5c-2,6.7-4,13.4-6,20.1c-1.9,6.4-4.2,12.8-5.2,19.4c-1.9,12.7,1.4,26,9.5,36
				c4.2,5.2,10.9,9.5,17.8,8.8c2.6-0.3,5.1-2.1,5-5C511.6,125.3,509.5,122.5,506.7,122.8L506.7,122.8z"/>
		</g>
	</g>
	<g>
		<g>
			<path class="st1" d="M505.9,183.2c-0.5-0.1-1-0.2-1.5-0.3c-0.2-0.1-1.4-0.5-0.8-0.2c0.6,0.3-0.5-0.3-0.7-0.4
				c-0.4-0.2-0.8-0.5-1.2-0.8c-0.8-0.5,0,0.1,0.1,0.1c-0.2-0.1-0.5-0.4-0.6-0.5c-0.3-0.3-0.6-0.6-1-0.9c-0.6-0.7-1.4-1.4-1.9-2.2
				c0.6,1-0.2-0.3-0.4-0.5c-0.3-0.4-0.5-0.7-0.8-1.1c-0.6-0.9-1.2-1.9-1.7-2.8c-1.1-1.9-2.2-3.8-3.1-5.8c-0.5-0.9-0.9-1.9-1.3-2.8
				c-0.2-0.5-0.4-0.9-0.6-1.4c-0.4-0.9-0.1-0.2,0,0c-0.1-0.3-0.3-0.7-0.4-1c-0.8-2-1.6-4.1-2.3-6.2c-1.4-4.3-2.5-8.6-3.2-13
				c-0.1-0.6-0.2-1.2-0.3-1.7c0-0.3-0.1-0.6-0.1-0.9c-0.1-0.5-0.1-0.5,0,0c-0.2-1.2-0.3-2.5-0.4-3.7c-0.2-2.6-0.3-5.1-0.4-7.7
				c0-2.6-2.3-5.1-5-5c-2.7,0.1-5,2.2-5,5c0.1,9.8,1.6,19.6,4.5,28.9c1.5,4.8,3.4,9.4,5.5,13.9c1.9,4,4.1,8.1,6.8,11.6
				c3.2,4.3,7.5,8.4,13.1,9.2c2.6,0.4,5.5-0.6,6.2-3.5C510,186.9,508.7,183.6,505.9,183.2L505.9,183.2z"/>
		</g>
	</g>
	<g>
		<g>
			<path class="st1" d="M465.6,162.9c1.1,14,7,27.2,16.5,37.5c2.8,3,5.8,5.6,9.1,7.9c2.1,1.5,5.7,0.4,6.8-1.8
				c1.4-2.6,0.5-5.2-1.8-6.8c-0.4-0.3-0.8-0.6-1.2-0.9c1,0.8-0.3-0.3-0.5-0.4c-0.8-0.7-1.6-1.3-2.3-2c-1.4-1.3-2.8-2.7-4-4.1
				c-0.6-0.7-1.2-1.4-1.7-2.1c-0.3-0.4-0.3-0.4,0.1,0.1c-0.2-0.2-0.3-0.4-0.5-0.6c-0.3-0.4-0.6-0.8-0.9-1.3
				c-1.1-1.6-2.1-3.2-3.1-4.9c-1-1.7-1.8-3.4-2.6-5.2c-0.2-0.5-0.2-0.5,0.1,0.1c-0.1-0.2-0.2-0.5-0.3-0.7c-0.2-0.5-0.4-1-0.6-1.4
				c-0.3-0.8-0.6-1.7-0.9-2.6c-0.6-1.8-1.1-3.7-1.4-5.6c-0.2-1-0.5-2-0.5-3c0.1,1.4,0-0.3-0.1-0.6c-0.1-0.5-0.1-1-0.1-1.5
				c-0.2-2.6-2.1-5.1-5-5C468,158.1,465.3,160.2,465.6,162.9L465.6,162.9z"/>
		</g>
	</g>
	<g>
		<g>
			<path class="st1" d="M524.4,194.9c-0.1,0.3-0.3,0.5-0.4,0.8c-0.1,0.1-0.1,0.2-0.2,0.3c-0.2,0.3-0.1,0.2,0.2-0.3c0,0-1,1-1.1,1.2
				c-0.5,0.5,1-0.6,0,0c-0.2,0.1-0.4,0.3-0.6,0.4c-0.5,0.3-1.1,0.6-1.6,0.9c-0.5,0.3-1,0.5-1.5,0.7c-0.6,0.3,0.9-0.3,0,0
				c-0.3,0.1-0.7,0.3-1,0.4c-1.4,0.6-2.8,1.1-4.2,1.6c-2.8,1-5.5,2-8.3,2.9c-1.4,0.5-2.9,0.9-4.3,1.4c-0.5,0.1-1.8,0.3-2.1,0.6
				c0.1-0.1,1.2,0,0.4-0.1c0.6,0,1.7,0.4,2.1,0.9c0.4,0.7,0.9,1.5,1.3,2.2c0,0.3,0,0.6,0.1,0.9c-0.3-2.6-2.1-5.1-5-5
				c-2.5,0.1-5.3,2.2-5,5c0.3,2.9,1.9,5.2,4.9,5.8c2.2,0.5,4.3-0.2,6.4-0.8c3.6-1.1,7.1-2.3,10.6-3.6c3.5-1.3,7.1-2.6,10.4-4.2
				c3.1-1.5,6.1-3.9,7.7-7.1c1.2-2.3,0.7-5.5-1.8-6.8C529,191.9,525.7,192.4,524.4,194.9L524.4,194.9z"/>
		</g>
	</g>
	<g>
		<g>
			<path class="st1" d="M542.2,155.2c0.5-1,1-2,1.6-3c0.3-0.5,0.6-0.9,0.9-1.3c0.2-0.2,0.3-0.4,0.5-0.6c0.4-0.6-0.8,0.9,0.1-0.1
				c0.7-0.8,1.4-1.6,2.2-2.3c0.4-0.4,0.9-0.8,1.3-1.2c0.1-0.1,0.8-0.6,0.3-0.2c-0.5,0.4,0.4-0.3,0.5-0.3c-2.5-1.4-5-2.9-7.5-4.3
				c-1.1,17.1,6.4,34.7,19.6,45.7c2,1.7,5.1,2.1,7.1,0c1.7-1.8,2.1-5.3,0-7.1c-1.5-1.2-2.9-2.6-4.3-4c-0.7-0.8-1.4-1.5-2.1-2.3
				c-0.2-0.3-0.5-0.6-0.7-0.9c-0.3-0.4-0.3-0.4,0.1,0.1c-0.2-0.2-0.3-0.4-0.5-0.6c-2.3-3.1-4.1-6.5-5.7-10c-0.1-0.3-0.1-0.2,0.1,0.3
				c-0.1-0.2-0.2-0.5-0.3-0.7c-0.2-0.5-0.4-1-0.6-1.5c-0.3-0.9-0.6-1.7-0.9-2.6c-0.6-1.9-1-3.8-1.4-5.7c-0.1-0.5-0.2-1-0.3-1.5
				c-0.2-1.3,0.1,1.1,0-0.2c-0.1-1-0.2-2.1-0.3-3.1c-0.1-1.9-0.1-3.9,0-5.8c0.2-3.6-4.5-6.5-7.5-4.3c-4.6,3.3-8.5,7.6-10.9,12.7
				c-1.1,2.4-0.7,5.5,1.8,6.8C537.6,158.1,541,157.7,542.2,155.2L542.2,155.2z"/>
		</g>
	</g>
	<g>
		<g>
			<path class="st1" d="M546.7,212.8c0.3,0,1,0.2,0.4,0c-0.2-0.1-0.4-0.2-0.6-0.2c0.8,0.1,0.7,0.3,0.2,0c-0.1-0.1-0.2-0.1-0.3-0.2
				c-0.2-0.2-0.2-0.1,0.1,0.1c0.3,0.2,0.3,0.3,0.1,0.1c-0.1-0.1-0.2-0.1-0.3-0.2c-0.2-0.2-0.3-0.3-0.5-0.5c-0.2-0.2-0.4-0.4-0.6-0.6
				c-0.5-0.5,0.1,0,0.1,0.2c0-0.3-0.6-0.9-0.8-1.2c-0.3-0.4-0.5-0.9-0.8-1.3c-0.6-1.1-1.2-2.2-1.8-3.3c-1.1-2.2-2.2-4.4-3.1-6.7
				c-0.3-0.8,0.4,1.1-0.1-0.2c-0.1-0.3-0.2-0.6-0.3-0.8c-0.2-0.6-0.4-1.1-0.6-1.7c-0.5-1.3-0.9-2.5-1.4-3.8
				c-0.8-2.5-3.5-4.4-6.2-3.5c-2.5,0.8-4.4,3.5-3.5,6.2c2,5.8,4.4,11.4,7.2,16.7c1.3,2.4,2.6,4.7,4.4,6.7c2.2,2.5,5,3.8,8.3,4.2
				c2.6,0.3,5.1-2.5,5-5C551.5,214.8,549.5,213.1,546.7,212.8L546.7,212.8z"/>
		</g>
	</g>
	<g>
		<g>
			<path class="st1" d="M550,98c-1.1,9.3-1.1,18.7,0.8,27.9c1.7,8.2,5.2,15.8,10.5,22.3c2.9,3.5,6.4,6.5,10.2,8.9
				c2.2,1.4,5.6,0.6,6.8-1.8c1.3-2.4,0.6-5.4-1.8-6.8c-0.7-0.4-1.4-0.9-2.1-1.4c-0.2-0.1-0.3-0.2-0.5-0.3c-0.8-0.6,0,0,0.1,0.1
				c-0.4-0.1-0.8-0.6-1-0.9c-1.4-1.2-2.6-2.5-3.8-3.8c-0.3-0.3-0.5-0.6-0.7-0.9c-0.1-0.1-0.3-0.3-0.4-0.5c0.3,0.7,0.3,0.4,0.1,0.1
				c-0.5-0.7-1.1-1.5-1.6-2.2c-1-1.5-1.8-3-2.6-4.6c-0.4-0.7-0.8-1.5-1.1-2.3c0.3,0.9,0,0-0.2-0.4c-0.2-0.4-0.3-0.9-0.5-1.3
				c-0.7-1.9-1.2-3.8-1.7-5.7c-0.2-1-0.4-2-0.6-3c-0.1-0.5-0.2-0.9-0.2-1.4c0-0.2-0.1-0.5-0.1-0.7c0.1,1,0-0.1,0-0.3
				c-0.2-2.1-0.4-4.2-0.4-6.3c-0.1-4.9,0.2-9.8,0.7-14.6c0.3-2.6-2.5-5.1-5-5C552,93.2,550.3,95.2,550,98L550,98z"/>
		</g>
	</g>
	<g>
		<g>
			<path class="st1" d="M528.4,285.9c0,0.1-0.1,0.1-0.1,0.2c0.6-0.6,1.2-1.2,1.8-1.8c0.3-0.1,0.5-0.2,0.8-0.4c0.9,0,1.8,0,2.7,0
				c-0.7-0.1,0.8,0.4,1,0.6c0.9,0.8,0.1,0-0.1-0.3c-0.5-0.7-0.9-1.5-1.4-2.2c-0.8-1.4-1.6-2.8-2.3-4.2c-0.4-0.8-0.8-1.6-1.1-2.3
				c-0.2-0.4-0.4-0.8-0.5-1.2c0.4,1-0.1-0.3-0.2-0.4c-0.6-1.5-1.2-3.1-1.7-4.7c-1-3.2-1.8-6.4-2.4-9.7c-0.1-0.4-0.1-0.7-0.2-1.1
				c-0.1-0.4-0.2-1.3-0.1-0.4c-0.1-0.9-0.2-1.7-0.3-2.6c-0.2-1.7-0.2-3.5-0.3-5.2c0-1.8-0.9-3.4-2.5-4.3c-1.4-0.8-3.7-1-5,0
				c-1.9,1.5-4,2.8-6.3,3.8c-0.3,0.2-0.8,0.6-0.1,0c-0.2,0.1-0.5,0.2-0.7,0.3c-0.6,0.2-1.1,0.4-1.7,0.6c-1.2,0.4-2.4,0.7-3.7,0.9
				c-0.3,0.1-0.5,0.1-0.8,0.1c-0.1,0-1.3,0.2-0.5,0.1c0.7-0.1-0.2,0-0.3,0c-0.3,0-0.7,0.1-1,0.1c-1.2,0.1-2.4,0.1-3.6,0.1
				c-0.7,0-1.3-0.1-2-0.1c-0.2,0-0.7,0-0.8-0.1c0.2,0,0.4,0.1,0.5,0.1c-0.2,0-0.4-0.1-0.6-0.1c-1.2-0.2-2.5-0.5-3.7-0.8
				c-2.5-0.7-5.6,0.9-6.2,3.5c-0.6,2.7,0.8,5.4,3.5,6.2c11,3.1,23.7,1,32.8-6c-2.5-1.4-5-2.9-7.5-4.3c0.1,8.3,1.6,16.6,4.5,24.4
				c1.5,4,3.2,7.9,5.3,11.6c1.1,1.9,2.2,4,3.7,5.5c2.8,2.8,7.3,2.5,9.4-0.9c1.4-2.2,0.5-5.6-1.8-6.8
				C532.8,282.8,529.9,283.5,528.4,285.9L528.4,285.9z"/>
		</g>
	</g>
	<g>
		<g>
			<path class="st1" d="M581.5,275c-0.6-0.7-1.2-1.4-1.8-2.1c-0.4-0.5,0-0.1,0.1,0.2c-0.1-0.2-0.3-0.4-0.4-0.6
				c-0.3-0.4-0.5-0.8-0.8-1.1c-1.1-1.6-2-3.3-2.8-5c-0.1-0.2-0.2-0.4-0.3-0.6c-0.3-0.6,0.3,0.9,0.1,0.2c-0.2-0.4-0.3-0.9-0.5-1.3
				c-0.3-0.9-0.6-1.8-0.9-2.6c-0.3-0.9-0.5-1.8-0.7-2.7c-0.1-0.5-0.2-0.9-0.2-1.4c0-0.2-0.1-1,0-0.2c0.1,0.8,0-0.3,0-0.4
				c-0.2-1.4-0.5-2.5-1.5-3.5c-0.9-0.9-2.3-1.5-3.5-1.5c-2.5,0.1-5.3,2.2-5,5c1,9.3,4.8,17.8,11.2,24.7c1.8,1.9,5.3,1.9,7.1,0
				C583.4,280,583.4,277,581.5,275L581.5,275z"/>
		</g>
	</g>
	<g>
		<g>
			<path class="st1" d="M639.2,120.9c-0.8,0.7-1.6,1.4-2.4,2.1c-0.4,0.3-0.4,0.3,0.1,0c-0.2,0.2-0.4,0.3-0.6,0.5
				c-0.4,0.3-0.9,0.6-1.3,0.9c-1.7,1.1-3.4,2.1-5.2,3c-1,0.5-1.9,1-2.9,1.4c-0.2,0.1-1.8,0.8-0.7,0.3c-0.5,0.2-1,0.4-1.5,0.6
				c-1.9,0.7-3.8,1.4-5.8,2c-8.9,2.9-18.1,5.1-27.2,7.6c-2.5,0.7-4.3,3.6-3.5,6.2c0.8,2.6,3.4,4.2,6.2,3.5c9.3-2.5,18.8-4.8,28-7.8
				c8.8-2.9,17.3-6.8,24.1-13.2c1.9-1.8,1.9-5.3,0-7.1C644.2,119,641.2,119,639.2,120.9L639.2,120.9z"/>
		</g>
	</g>
	<g>
		<g>
			<path class="st1" d="M651.8,87.8c-0.4,15.6,2.7,31.1,8.8,45.4c1.6,3.9,3.5,7.6,5.6,11.3c1.3,2.3,4.6,3.2,6.8,1.8
				c2.3-1.5,3.2-4.4,1.8-6.8c-1.1-2-2.2-4-3.2-6c-0.5-1.1-1-2.1-1.5-3.2c-0.2-0.5-0.5-1.1-0.7-1.6c0.4,1-0.3-0.7-0.3-0.9
				c-1.7-4.3-3.1-8.6-4.3-13.1c-0.6-2.3-1.1-4.6-1.5-6.9c-0.2-1-0.4-2-0.5-3.1c0-0.2-0.3-2.1-0.1-0.9c-0.1-0.6-0.1-1.2-0.2-1.8
				c-0.5-4.7-0.7-9.5-0.6-14.2c0.1-2.6-2.3-5.1-5-5C654.1,82.9,651.9,85,651.8,87.8L651.8,87.8z"/>
		</g>
	</g>
	<g>
		<g>
			<path class="st1" d="M671.2,178.8c-3.5-1.9-6.8-4-10-6.3c-0.4-0.3-0.4-0.3,0.1,0.1c-0.2-0.2-0.4-0.3-0.6-0.5
				c-0.3-0.2-0.6-0.5-0.9-0.7c-0.8-0.7-1.6-1.3-2.4-2c-1.4-1.3-2.8-2.6-4.1-4c-1.3-1.4-2.6-2.8-3.8-4.2c-0.3-0.4-0.7-0.8-1-1.2
				c-0.2-0.2-0.3-0.4-0.5-0.6c0.4,0.5,0.4,0.5,0.1,0.1c-0.5-0.7-1.1-1.5-1.6-2.2c-2.3-3.2-4.3-6.6-6-10.2c-1.5-3.1-5.6-3-7.9-1
				c-0.3,0.3-0.6,0.5-0.9,0.8c-0.1,0.1-1.2,0.9-0.2,0.2c-0.6,0.4-1.2,0.9-1.8,1.3c-1.2,0.8-2.5,1.6-3.8,2.3c-1.4,0.7-2.7,1.4-4.2,2
				c0.6-0.3,0.4-0.2-0.1,0c-0.3,0.1-0.6,0.2-0.9,0.4c-0.8,0.3-1.5,0.6-2.3,0.8c-5.8,2-11.8,3.2-17.8,4.5c-2.6,0.5-4.3,3.7-3.5,6.2
				c0.9,2.7,3.4,4.1,6.2,3.5c13-2.7,26.2-5.8,36.4-14.8c-2.6-0.3-5.2-0.7-7.9-1c7.4,15,19.7,27.6,34.4,35.5c2.3,1.2,5.5,0.7,6.8-1.8
				C674.2,183.3,673.7,180.1,671.2,178.8L671.2,178.8z"/>
		</g>
	</g>
	<g>
		<g>
			<path class="st1" d="M648.1,223.6c-0.7-0.4-1.3-0.8-2-1.3c-0.5-0.3,0.3,0.2,0.3,0.2c0-0.1-0.3-0.3-0.4-0.3
				c-0.3-0.3-0.6-0.5-0.9-0.8c-0.6-0.5-1.1-1.1-1.6-1.7c-0.2-0.3-0.5-0.5-0.7-0.8c-0.4-0.4,0.2,0.3,0.2,0.3c0-0.1-0.4-0.5-0.4-0.6
				c-0.9-1.3-1.7-2.6-2.4-4c-0.4-0.7-0.7-1.4-1-2.2c-0.2-0.5,0.2,0.3,0.1,0.3c0,0-0.2-0.5-0.2-0.5c-0.2-0.4-0.3-0.8-0.5-1.2
				c-2.6-7.1-4-14.7-5.2-22.1c-0.1-0.6,0,0,0,0.1c0-0.3-0.1-0.6-0.1-1c-0.1-0.6-0.1-1.1-0.2-1.7c-0.1-1.2-0.2-2.4-0.3-3.6
				c-0.2-2.4-0.2-4.8-0.2-7.3c0-2-1.3-3.8-3.1-4.6c-1.7-0.7-4.2-0.5-5.5,1c-2,2.6-4.1,5.1-6.4,7.4c-0.6,0.6-1.2,1.1-1.8,1.6
				c-0.2,0.2-1.2,0.9-0.2,0.2c-0.3,0.2-0.5,0.4-0.8,0.6c-0.7,0.5-1.3,0.9-2,1.3c-0.4,0.2-0.7,0.4-1.1,0.6c-0.2,0.1-0.4,0.2-0.6,0.3
				c0.4-0.2,0.5-0.2,0.1-0.1c-7.1,2.5-14.6,3.8-21.9,5.6c-2.5,0.6-4.3,3.6-3.5,6.2c0.9,2.7,3.4,4.1,6.2,3.5c4-0.9,7.9-1.9,11.9-2.8
				c3.8-0.9,7.6-1.7,11.3-3.3c6.8-2.9,11.6-8.4,16.1-14c-2.8-1.2-5.7-2.4-8.5-3.5c-0.1,9.3,1.3,18.5,3.3,27.6
				c1.6,7,3.6,14.2,7.7,20.2c2.5,3.6,5.5,6.8,9.4,9c2.3,1.3,5.6,0.6,6.8-1.8C651.2,228,650.5,224.9,648.1,223.6L648.1,223.6z"/>
		</g>
	</g>
	<g>
		<g>
			<path class="st1" d="M631.5,381.7c4.6-16.3,9.1-32.6,13.5-48.9c4.4-16.3,8.7-32.7,12.9-49.1c2.4-9.3,4.7-18.6,7-27.9
				c0.5-2.1-0.3-4.6-2.3-5.6c-1.9-1-4.5-0.9-6.1,0.8c-2.5,2.8-5.2,5.4-8,7.9c-1.4,1.2-2.8,2.3-4.2,3.5c0.9-0.7-0.3,0.2-0.5,0.4
				c-0.4,0.3-0.8,0.6-1.2,0.9c-0.7,0.5-1.5,1.1-2.2,1.6c-3,2.1-6.2,4-9.5,5.7c-1.6,0.8-3.2,1.6-4.9,2.4c-0.4,0.2-0.9,0.4-1.3,0.6
				c-0.2,0.1-0.4,0.2-0.6,0.2c0.6-0.2,0.6-0.2,0,0c-0.9,0.4-1.8,0.7-2.7,1.1c-2.4,0.9-4.4,3.4-3.5,6.2c0.8,2.4,3.5,4.5,6.2,3.5
				c15-5.7,28.6-14.8,39.4-26.8c-2.8-1.6-5.6-3.2-8.4-4.9c-4.1,16.4-8.2,32.8-12.5,49.2s-8.7,32.7-13.2,49
				c-2.5,9.2-5.1,18.5-7.7,27.7c-0.7,2.5,0.9,5.6,3.5,6.2C628,385.8,630.7,384.4,631.5,381.7L631.5,381.7z"/>
		</g>
	</g>
	<g>
		<g>
			<path class="st1" d="M655.9,254.4c0.1,7.4-0.1,14.9,0.7,22.2c0.8,7.6,2.8,14.8,6.1,21.8c1.1,2.4,4.7,3.2,6.8,1.8
				c2.4-1.6,3-4.3,1.8-6.8c-0.2-0.4-0.4-0.8-0.6-1.2c0-0.1-0.5-1.2-0.3-0.7c0.2,0.6-0.2-0.6-0.3-0.7c-0.2-0.4-0.3-0.9-0.5-1.3
				c-0.6-1.6-1.1-3.2-1.5-4.8c-0.4-1.5-0.8-3.1-1.1-4.7c-0.2-0.9-0.3-1.7-0.4-2.6c0.1,0.7,0,0,0-0.3c-0.1-0.5-0.1-1-0.1-1.4
				c-0.7-7.1-0.5-14.2-0.6-21.3c0-2.6-2.3-5.1-5-5C658.2,249.6,655.8,251.6,655.9,254.4L655.9,254.4z"/>
		</g>
	</g>
	<g>
		<g>
			<path class="st1" d="M647.5,287.3c-0.9,0.7,0.5-0.4-0.3,0.3c-0.3,0.3-0.7,0.5-1,0.8c-0.7,0.5-1.4,1-2.1,1.4
				c-1.3,0.9-2.6,1.7-4,2.4c-1.5,0.8-3,1.6-4.5,2.3c-0.4,0.2-0.8,0.3-1.2,0.5c-0.9,0.4,0.4-0.1-0.2,0.1c-0.8,0.3-1.6,0.6-2.4,0.9
				c-3,1.1-6.2,2-9.4,2.6c-0.8,0.2-1.5,0.3-2.3,0.4c-0.4,0.1-0.8,0.1-1.3,0.2c1.2-0.2-0.2,0-0.3,0c-1.7,0.2-3.4,0.3-5.1,0.4
				c-2.6,0.1-5.1,2.2-5,5c0.1,2.6,2.2,5.1,5,5c15-0.5,29.3-5.9,41-15.2c2.1-1.6,1.8-5.4,0-7.1C652.4,285.3,649.7,285.5,647.5,287.3
				L647.5,287.3z"/>
		</g>
	</g>
	<g>
		<g>
			<path class="st1" d="M646.2,293.3c-2.1,13.5,1.6,27.1,10.4,37.6c1.7,2,5.4,1.9,7.1,0c2-2.1,1.8-4.9,0-7.1
				c-0.3-0.3-0.5-0.6-0.8-0.9c-0.3-0.4-0.2-0.3,0,0.1c-0.4-0.6-0.9-1.2-1.3-1.8c-0.8-1.2-1.5-2.4-2.1-3.6c-0.3-0.6-0.6-1.2-0.9-1.8
				c-0.1-0.1-0.5-1.2-0.2-0.5c0.3,0.6-0.2-0.4-0.2-0.5c-0.5-1.3-1-2.6-1.3-4c-0.4-1.3-0.7-2.6-0.9-3.9c-0.1-0.3-0.1-0.7-0.2-1
				c-0.2-1.3,0.1,1.1,0-0.3c-0.1-0.7-0.1-1.3-0.2-2c-0.1-1.3-0.1-2.7-0.1-4c0-0.7,0.1-1.5,0.1-2.2c0-0.2,0-0.8,0.1-1
				c0,0.2-0.1,0.4-0.1,0.5c0-0.3,0.1-0.5,0.1-0.8c0.4-2.6-0.7-5.5-3.5-6.2C650,289.2,646.7,290.5,646.2,293.3L646.2,293.3z"/>
		</g>
	</g>
	<g>
		<g>
			<path class="st1" d="M608.4,237.5c3.3,10.9,11.1,20.4,21.3,25.6c2.3,1.2,5.5,0.7,6.8-1.8c1.2-2.3,0.7-5.6-1.8-6.8
				c-1.1-0.6-2.2-1.2-3.3-1.9c-0.5-0.3-1-0.6-1.4-1c-0.2-0.2-0.5-0.3-0.7-0.5c-0.5-0.4,0.8,0.6,0.1,0c-1.9-1.6-3.7-3.3-5.3-5.2
				c-0.2-0.2-0.4-0.4-0.5-0.7c-0.6-0.7,0.4,0.6,0,0.1c-0.4-0.5-0.8-1-1.1-1.5c-0.7-1-1.3-2-1.9-3.1c-0.6-1.1-1-2.2-1.6-3.2
				c0.3,0.5,0.3,0.7,0,0.1c-0.1-0.3-0.2-0.5-0.3-0.8c-0.2-0.6-0.4-1.3-0.6-2c-0.8-2.5-3.5-4.3-6.2-3.5
				C609.4,232.1,607.6,234.8,608.4,237.5L608.4,237.5z"/>
		</g>
	</g>
	<g>
		<g>
			<path class="st1" d="M607,229.8c-3.8,2.5-7.7,4.7-11.8,6.6c-0.5,0.2-0.9,0.4-1.4,0.6c1-0.4-0.7,0.3-0.9,0.3
				c-1,0.4-2.1,0.8-3.1,1.2c-2.2,0.8-4.4,1.4-6.6,2c-2.5,0.7-4.3,3.6-3.5,6.2c0.8,2.6,3.4,4.2,6.2,3.5c9.3-2.4,18.2-6.4,26.2-11.7
				c2.2-1.4,3.3-4.5,1.8-6.8C612.4,229.4,609.3,228.2,607,229.8L607,229.8z"/>
		</g>
	</g>
	<g>
		<g>
			<path class="st1" d="M592.1,223.8c-0.2-0.1-0.3-0.1-0.5-0.2c-0.3-0.1-0.2-0.1,0.4,0.2c-0.2,0-0.7-0.4-0.9-0.5
				c-0.4-0.2-1.2-0.6-1.5-0.9c0.5,0.4,0.6,0.5,0.3,0.2c-0.1-0.1-0.3-0.2-0.4-0.3c-0.3-0.2-0.5-0.5-0.8-0.7c-0.4-0.4-0.8-0.9-1.2-1.3
				c-0.1-0.1-0.2-0.3-0.3-0.4c-0.2-0.3-0.2-0.2,0.2,0.3c0,0-0.6-0.8-0.6-0.9c-0.3-0.5-0.7-1-1-1.5c-0.7-1.2-1.4-2.5-2-3.8
				c-0.3-0.6-0.6-1.2-0.9-1.8c-0.1-0.3-0.3-0.6-0.4-0.8c-0.1-0.1-0.6-1.3-0.3-0.6c0.3,0.7-0.1-0.3-0.2-0.5c-0.1-0.4-0.3-0.7-0.4-1.1
				c-0.2-0.7-0.5-1.4-0.6-2c-0.1-0.3-0.2-0.6-0.2-0.9c-0.1-0.3-0.5-1.4-0.1-0.2c-0.2-0.6-0.1-1.4-0.1-2c0-1,0.2-0.1,0,0.1
				c0.1-0.1,0.2-0.9,0.3-1c0.3-1-0.5,0.8,0-0.1c0.2-0.2,0.8-1.1,0-0.2c1.6-2,2.1-5.1,0-7.1c-1.8-1.7-5.3-2.2-7.1,0
				c-1.4,1.7-2.5,3.5-2.9,5.7c-0.4,2.3-0.3,4.4,0,6.6c0.6,3.6,2.2,7,3.8,10.3c3.1,6.6,7.5,12.7,14.6,15.2c2.5,0.9,5.6-1,6.2-3.5
				C596.2,227.2,594.7,224.7,592.1,223.8L592.1,223.8z"/>
		</g>
	</g>
	<g>
		<g>
			<path class="st1" d="M739.1,288.3c-2.3-1.5-4.5-3-6.8-4.7c-0.6-0.5,0.9,0.7,0,0c-0.2-0.2-0.5-0.4-0.7-0.6
				c-0.5-0.4-1.1-0.9-1.6-1.3c-1-0.9-2-1.7-3-2.6c-4-3.7-7.7-7.6-11-11.9c-0.6-0.7,0,0,0.1,0.1c-0.2-0.3-0.5-0.6-0.7-0.9
				c-0.4-0.5-0.8-1-1.1-1.5c-0.8-1.1-1.6-2.3-2.4-3.5c-1.5-2.2-2.8-4.5-4.1-6.9c-1.3-2.3-2.5-4.8-3.6-7.2c-0.2-0.3-0.3-0.7-0.5-1.1
				c-0.1-0.2-0.4-0.9,0.1,0.1c-0.3-0.6-0.5-1.2-0.7-1.8c-0.5-1.3-1-2.6-1.5-3.9c-2-5.8-3.4-11.8-4.3-17.8c-0.4-3.1-4.9-4.7-7.3-3
				c-2.5,1.7-5.1,3.4-7.7,4.8c-1.3,0.7-2.6,1.4-3.9,2c-0.7,0.3-1.3,0.6-2,0.9c-0.4,0.2-0.8,0.3-1.2,0.5c0.7-0.3,0.2-0.1-0.2,0.1
				c-5.6,2.3-11.3,3.9-17.3,4.9c-2.6,0.4-4.3,3.8-3.5,6.2c0.9,2.8,3.4,4,6.2,3.5c12.4-2.1,24.3-7,34.6-14.2c-2.4-1-4.9-2-7.3-3
				c3.1,22.5,14.5,43.9,31,59.5c4.7,4.5,10,8.5,15.5,12c2.2,1.4,5.6,0.5,6.8-1.8C742.2,292.7,741.5,289.8,739.1,288.3L739.1,288.3z"
				/>
		</g>
	</g>
	<g>
		<g>
			<path class="st1" d="M693.6,188.1c-0.5,0.8-1,1.5-1.5,2.3c-0.3,0.4-0.6,0.8-0.9,1.3c-0.2,0.2-0.8,1.2-0.2,0.2
				c-1,1.5-2.3,2.8-3.5,4.1c-1.2,1.2-2.4,2.4-3.6,3.4c-0.7,0.6-1.4,1.2-2.1,1.7c1-0.7-0.2,0.1-0.4,0.3c-0.4,0.3-0.7,0.5-1.1,0.8
				c-2.9,2-5.9,3.7-9.1,5.1c-0.5,0.2-0.5,0.2,0.1,0c-0.2,0.1-0.5,0.2-0.7,0.3c-0.4,0.1-0.7,0.3-1.1,0.4c-0.8,0.3-1.7,0.6-2.5,0.9
				c-0.9,0.3-1.7,0.5-2.6,0.7c-0.4,0.1-0.7,0.2-1.1,0.3c-0.2,0.1-0.5,0.1-0.8,0.2c-0.6,0.1-0.5,0.1,0.2-0.1c0.8,0.2,1.7,0.5,2.5,0.7
				c-0.1-0.1-0.2-0.1-0.3-0.2c0.8,1,1.5,2,2.3,3c0-0.1,0-0.1-0.1-0.2c0,0.9,0,1.8,0,2.7c0-0.1,0-0.1,0.1-0.2
				c-0.4,0.7-0.9,1.5-1.3,2.2c0-0.1,0.1-0.1,0.1-0.2c-0.7,0.4-1.5,0.9-2.2,1.3c0.1,0,0.1,0,0.2-0.1c-1.3-0.2-2.6-0.3-3.9-0.5
				c0,0,0.1,0.1,0.1,0.1c2.3,1.2,5.6,0.6,6.8-1.8c1.2-2.3,0.7-5.5-1.8-6.8c-4.1-2.2-9.1,1.4-7.8,6.1c0.7,2.3,2.8,3.8,5.1,3.9
				c1.2,0.1,2.4-0.3,3.5-0.5c3.7-0.9,7.2-2.2,10.6-3.8c6.5-3,12.5-7.3,17.4-12.4c2.9-3,5.5-6.4,7.8-10c1.4-2.2,0.5-5.6-1.8-6.8
				C697.9,185,695,185.7,693.6,188.1L693.6,188.1z"/>
		</g>
	</g>
	<g>
		<g>
			<path class="st1" d="M700.6,171.9c1.6,19.9,6.4,40.1,19.8,55.5c3.4,3.9,7.4,7.4,11.8,10.2c1.7-2.9,3.4-5.8,5-8.6
				c-0.8-0.4,0.4,0.4,0,0c-0.2-0.2-0.2-0.2,0,0.1c0.2,0.2,0.3,0.5,0.4,0.7c-1-2.4-3.4-4.4-6.2-3.5c-2.3,0.8-4.6,3.6-3.5,6.2
				c0.9,2.2,2.1,3.9,4.2,5.1c2.3,1.3,5.6,0.6,6.8-1.8c1.3-2.5,0.6-5.3-1.8-6.8c-0.8-0.5-1.7-1.1-2.5-1.7c-0.1-0.1-0.8-0.6-0.3-0.2
				c0.5,0.4-0.2-0.1-0.3-0.2c-0.4-0.3-0.8-0.7-1.2-1c-1.6-1.3-3.1-2.8-4.5-4.3c-0.7-0.8-1.4-1.6-2.1-2.4c-0.3-0.4-0.6-0.7-0.9-1.1
				c-0.5-0.6,0.5,0.7,0,0.1c-0.2-0.3-0.4-0.5-0.6-0.8c-1.2-1.7-2.4-3.4-3.4-5.2c-1.1-1.8-2-3.6-2.9-5.5c-0.2-0.4-0.4-0.8-0.6-1.3
				c-0.1-0.2-0.2-0.5-0.3-0.7c-0.1-0.1-0.4-0.9-0.2-0.4c0.2,0.5-0.1-0.2-0.1-0.2c-0.1-0.3-0.2-0.6-0.3-0.9c-0.3-0.6-0.5-1.3-0.7-1.9
				c-1.6-4.5-2.9-9.1-3.8-13.8c-0.3-1.4-0.5-2.7-0.7-4.1c-0.1-0.7-0.2-1.4-0.3-2.1c0-0.3-0.3-2-0.1-1c-0.3-2.8-0.6-5.5-0.9-8.3
				c-0.2-2.6-2.2-5.1-5-5C703.1,167,700.4,169.1,700.6,171.9L700.6,171.9z"/>
		</g>
	</g>
	<g>
		<g>
			<path class="st1" d="M744.8,177c-1.8-0.9-3.5-1.9-5.2-2.9c-0.8-0.5-1.5-1-2.3-1.5c-0.4-0.3-0.8-0.6-1.2-0.9
				c-0.1-0.1-0.4-0.2-0.4-0.3c0.5,0.4,0.6,0.4,0.3,0.2c-0.1-0.1-0.3-0.2-0.4-0.3c-3-2.4-5.8-5.2-8.3-8.2c-0.3-0.4-0.6-0.8-0.9-1.1
				c-0.1-0.1-0.3-0.3-0.3-0.4c0.1,0.5,0.4,0.6,0.1,0.1c-0.6-0.8-1.2-1.7-1.8-2.6c-1.1-1.6-2.1-3.2-3-4.9c-0.9-1.7-1.9-3.5-2.6-5.3
				c0.5,1.2-0.1-0.3-0.2-0.5c-0.2-0.5-0.4-0.9-0.5-1.4c-0.3-0.9-0.6-1.9-0.9-2.8c-0.7-2.1-1.2-4.3-1.6-6.5c-0.1-0.5-0.2-1-0.2-1.5
				c0-0.2-0.1-0.5-0.1-0.7c0,1.2,0,0.4,0,0c-0.1-1.2-0.2-2.3-0.3-3.5c-0.1-2.1-1.5-4.3-3.7-4.8c-2.2-0.5-4.5,0.3-5.6,2.3
				c-0.8,1.4-1.7,2.8-2.6,4.1c-0.3,0.4-0.5,0.7-0.8,1.1c-0.1,0.1-0.8,1.1-0.4,0.5c0.4-0.5-0.3,0.4-0.4,0.5c-0.3,0.4-0.6,0.8-1,1.2
				c-2.1,2.5-4.5,4.8-7,6.9c-0.3,0.2-0.6,0.5-0.9,0.7c-0.1,0.1-0.8,0.6-0.2,0.2c0.5-0.4,0,0-0.1,0.1c-0.7,0.5-1.3,1-2,1.4
				c-1.4,1-2.8,1.9-4.3,2.7c-1.4,0.8-2.9,1.6-4.4,2.2c-0.3,0.2-0.7,0.3-1,0.5c-0.9,0.4,0.7-0.3-0.2,0.1c-0.8,0.3-1.6,0.6-2.5,0.9
				c-3.6,1.3-7.2,2.2-11,2.7c-2.6,0.4-4.2,3.8-3.5,6.2c0.9,2.9,3.4,3.9,6.2,3.5c14.2-2,27.8-9.5,37.4-20.3c2.8-3.1,5.3-6.6,7.4-10.2
				c-3.1-0.8-6.2-1.7-9.3-2.5c1,17.3,9.3,34.1,22.6,45.4c3.8,3.2,7.9,6.1,12.4,8.3c2.3,1.2,5.5,0.7,6.8-1.8
				C747.8,181.6,747.3,178.3,744.8,177L744.8,177z"/>
		</g>
	</g>
	<g>
		<g>
			<path class="st1" d="M711.2,111.2c1.8,16.3,8.8,31.6,20.1,43.5c3.2,3.4,6.8,6.4,10.7,9.1c2.1,1.5,5.7,0.4,6.8-1.8
				c1.4-2.6,0.5-5.2-1.8-6.8c-0.4-0.3-0.7-0.5-1.1-0.8c-0.2-0.2-1.4-0.9-0.4-0.3c-0.7-0.5-1.4-1.1-2.1-1.7c-1.4-1.2-2.7-2.4-4-3.7
				c-1.3-1.3-2.6-2.7-3.8-4.1c-0.5-0.6-1.1-1.3-1.6-1.9c-0.2-0.2-0.6-0.5,0.1,0.1c-0.1-0.1-0.2-0.3-0.3-0.5
				c-0.3-0.4-0.6-0.8-0.9-1.3c-2.1-2.9-4-6.1-5.6-9.3c-0.4-0.8-0.8-1.6-1.2-2.4c-0.2-0.4-0.4-0.8-0.5-1.2c0.4,1-0.1-0.3-0.2-0.6
				c-0.7-1.7-1.3-3.4-1.8-5.1c-0.6-1.9-1.1-3.8-1.5-5.8c-0.2-1-0.4-2-0.6-3c0-0.3-0.1-0.5-0.1-0.8c0-0.1-0.1-1,0-0.3
				c0.1,0.7,0,0,0-0.1c0-0.4-0.1-0.8-0.1-1.2c-0.3-2.6-2.1-5.1-5-5C713.8,106.3,710.9,108.4,711.2,111.2L711.2,111.2z"/>
		</g>
	</g>
	<g>
		<g>
			<path class="st1" d="M709.6,175.9c2.4-15.5,4.7-31,7.1-46.5c2.3-15,4.7-30,8.1-44.9c1.9-8.2,4-16.4,6.6-24.4
				c0.8-2.5-0.9-5.6-3.5-6.2c-2.7-0.6-5.3,0.8-6.2,3.5c-9.4,29.1-13.2,59.6-17.8,89.7c-1.3,8.7-2.7,17.4-4,26.1
				c-0.4,2.6,0.6,5.5,3.5,6.2C705.9,179.9,709.2,178.7,709.6,175.9L709.6,175.9z"/>
		</g>
	</g>
</g>
</svg>
